<svg width="730" height="103" viewBox="0 0 730 103" fill="none" xmlns="http://www.w3.org/2000/svg">
<rect x="1" y="1" width="728" height="101" rx="12" stroke="#C0C7D1" stroke-width="2"/>
<path d="M232.424 12.3462H232.805V12.7701H232.424V13.3636H231.957V12.7701H230.518V12.2635L231.831 10.3981H232.424V12.3462ZM231.957 12.3462V10.9275L230.962 12.3462H231.957ZM233.737 10.3981H234.097V13.3636H233.632V11.1199H233.103V10.8014C233.28 10.7821 233.416 10.74 233.508 10.6752C233.602 10.6091 233.678 10.5167 233.737 10.3981Z" fill="#FAFAFA"/>
<path d="M45.959 100.993V64.2074H93.9152V100.993" stroke="#C0C7D1" stroke-width="2"/>
<path d="M45 1L45 39" stroke="#C0C7D1" stroke-width="2"/>
<path d="M49.2891 8.35083C49.2891 6.69398 50.6322 5.35083 52.2891 5.35083H90.2489C91.9058 5.35083 93.2489 6.69398 93.2489 8.35083V33.1171C93.2489 34.7739 91.9058 36.1171 90.2489 36.1171H52.2891C50.6322 36.1171 49.2891 34.7739 49.2891 33.1171V8.35083Z" fill="#E5E7EA"/>
<path d="M415.621 8.35083C415.621 6.69398 416.964 5.35083 418.621 5.35083H457.913C459.57 5.35083 460.913 6.69398 460.913 8.35083V25.0911C460.913 26.7479 459.57 28.0911 457.913 28.0911H418.621C416.964 28.0911 415.621 26.7479 415.621 25.0911V8.35083Z" fill="#E5E7EA"/>
<path d="M498.211 72.2209C498.211 70.0118 500.002 68.2209 502.211 68.2209H511.528C513.738 68.2209 515.528 70.0118 515.528 72.2209V97.9872C515.528 98.5395 515.081 98.9872 514.528 98.9872H499.211C498.659 98.9872 498.211 98.5395 498.211 97.9872V72.2209Z" fill="#E5E7EA"/>
<path d="M498.211 32.1173C498.211 34.3264 500.002 36.1173 502.211 36.1173H511.528C513.738 36.1173 515.528 34.3264 515.528 32.1173V6.35108C515.528 5.79879 515.081 5.35107 514.528 5.35107H499.211C498.659 5.35107 498.211 5.79879 498.211 6.35107V32.1173Z" fill="#E5E7EA"/>
<path d="M245.109 72.2209C245.109 70.0118 246.9 68.2209 249.109 68.2209H258.427C260.636 68.2209 262.427 70.0118 262.427 72.2209V98.9872H245.109V72.2209Z" fill="#E5E7EA"/>
<path d="M245.109 32.1173C245.109 34.3264 246.9 36.1173 249.109 36.1173H258.427C260.636 36.1173 262.427 34.3264 262.427 32.1173V5.35107H245.109V32.1173Z" fill="#E5E7EA"/>
<path fill-rule="evenodd" clip-rule="evenodd" d="M546 38.4151V2.00012H548V37.4151H600V33.6056V2.00012H602V32.9798C607.18 35.4745 612.592 37.4226 618.102 38.8446V40.9073C612.597 39.5196 607.188 37.6207 602 35.1936V38.4151V39.4151H601H547H546V38.4151ZM634.087 43.505V41.5002C636.512 41.6883 638.931 41.7806 641.333 41.7788V2.00012H643.333V41.7554C647.432 41.6628 651.473 41.2954 655.402 40.6615V42.6875C648.525 43.7704 641.328 44.0555 634.087 43.505ZM671.388 38.4864C676.555 36.5157 681.34 34.0077 685.58 30.9845L686 30.6854V30.1702V2.00012H684V29.6519C680.204 32.3037 675.959 34.5394 671.388 36.3404V38.4864ZM546 65.5852H547H685H686V66.5852V102.313H684V67.5852H548V103H546V66.5852V65.5852Z" fill="#C0C7D1"/>
<path fill-rule="evenodd" clip-rule="evenodd" d="M702 85.2989V92.3903C702 92.5951 702.098 92.7876 702.263 92.9087L702.977 93.4325C703.402 93.7439 704 93.4407 704 92.9141V84.6441C704 84.0848 703.335 83.7923 702.923 84.1702L702.209 84.825C702.076 84.9468 702 85.1187 702 85.2989ZM699.501 85.1469C699.501 85.6795 699.069 86.1112 698.537 86.1112C698.004 86.1112 697.572 85.6795 697.572 85.1469C697.572 84.6144 698.004 84.1826 698.537 84.1826C699.069 84.1826 699.501 84.6144 699.501 85.1469ZM696.149 88.7347C696.351 88.465 696.578 88.2156 696.828 87.9898L696.68 88.5809C696.578 88.9882 696.625 89.405 696.793 89.7665C696.786 89.7809 696.781 89.7958 696.776 89.8111L696.407 90.9229C696.326 91.1655 696.133 91.3538 695.888 91.4277L694.855 91.7399C694.591 91.8198 694.442 92.0988 694.522 92.3631C694.601 92.6275 694.88 92.777 695.145 92.6971L696.178 92.385C696.734 92.2169 697.173 91.789 697.356 91.2376L697.571 90.5899L698.454 91.0947C698.64 91.2009 698.775 91.3785 698.827 91.5863L699.336 93.6254C699.403 93.8933 699.675 94.0562 699.943 93.9893C700.211 93.9223 700.374 93.6508 700.307 93.3829L699.797 91.3438C699.679 90.8715 699.373 90.4679 698.95 90.2264L698.759 90.1171L699.116 88.3323C699.478 88.8672 700.008 89.272 700.628 89.4785C700.89 89.5658 701.173 89.4243 701.26 89.1623C701.348 88.9003 701.206 88.6172 700.944 88.5298C700.452 88.366 700.046 88.0135 699.814 87.55L699.656 87.2335C699.165 86.2521 697.914 85.9412 697.021 86.579L696.724 86.7912C696.199 87.1659 695.736 87.619 695.349 88.1347L694.922 88.7042C694.756 88.9251 694.801 89.2385 695.022 89.4042C695.243 89.5699 695.556 89.5251 695.722 89.3042L696.149 88.7347Z" fill="#BFBEFC"/>
<path fill-rule="evenodd" clip-rule="evenodd" d="M25.9999 84.2989V91.3903C25.9999 91.5951 25.9023 91.7876 25.7372 91.9087L25.0229 92.4325C24.5983 92.7439 23.9999 92.4407 23.9999 91.9141V83.6441C23.9999 83.0848 24.6648 82.7923 25.0771 83.1702L25.7914 83.825C25.9242 83.9468 25.9999 84.1187 25.9999 84.2989ZM28.4991 84.1469C28.4991 84.6795 28.9309 85.1112 29.4634 85.1112C29.996 85.1112 30.4277 84.6795 30.4277 84.1469C30.4277 83.6144 29.996 83.1826 29.4634 83.1826C28.9309 83.1826 28.4991 83.6144 28.4991 84.1469ZM31.8512 87.7347C31.6489 87.465 31.4216 87.2156 31.1725 86.9898L31.3202 87.5809C31.4221 87.9882 31.3752 88.405 31.2073 88.7665C31.2136 88.7809 31.2194 88.7958 31.2245 88.8111L31.5931 89.9229C31.6735 90.1655 31.8669 90.3538 32.1116 90.4277L33.1445 90.7399C33.4088 90.8198 33.5584 91.0988 33.4785 91.3631C33.3986 91.6275 33.1196 91.777 32.8552 91.6971L31.8223 91.385C31.2663 91.2169 30.8267 90.789 30.6439 90.2376L30.4291 89.5899L29.5458 90.0947C29.3599 90.2009 29.2254 90.3785 29.1734 90.5863L28.6636 92.6254C28.5966 92.8933 28.3252 93.0562 28.0573 92.9893C27.7894 92.9223 27.6265 92.6508 27.6935 92.3829L28.2033 90.3438C28.3213 89.8715 28.6271 89.4679 29.0497 89.2264L29.241 89.1171L28.8841 87.3323C28.5219 87.8672 27.9918 88.272 27.3722 88.4785C27.1102 88.5658 26.827 88.4243 26.7397 88.1623C26.6524 87.9003 26.794 87.6172 27.0559 87.5298C27.5476 87.366 27.9539 87.0135 28.1857 86.55L28.3439 86.2335C28.8347 85.2521 30.0862 84.9412 30.9791 85.579L31.2761 85.7912C31.8007 86.1659 32.2645 86.619 32.6512 87.1347L33.0783 87.7042C33.244 87.9251 33.1992 88.2385 32.9783 88.4042C32.7574 88.5699 32.444 88.5251 32.2783 88.3042L31.8512 87.7347Z" fill="#BFBEFC"/>
<path fill-rule="evenodd" clip-rule="evenodd" d="M25.9999 10.2989V17.3903C25.9999 17.5951 25.9023 17.7876 25.7372 17.9087L25.0229 18.4325C24.5983 18.7439 23.9999 18.4407 23.9999 17.9141V9.64413C23.9999 9.08477 24.6648 8.79227 25.0771 9.17024L25.7914 9.825C25.9242 9.94677 25.9999 10.1187 25.9999 10.2989ZM28.4991 10.1469C28.4991 10.6795 28.9309 11.1112 29.4634 11.1112C29.996 11.1112 30.4277 10.6795 30.4277 10.1469C30.4277 9.61435 29.996 9.18262 29.4634 9.18262C28.9309 9.18262 28.4991 9.61435 28.4991 10.1469ZM31.8512 13.7347C31.6489 13.465 31.4216 13.2156 31.1725 12.9898L31.3202 13.5809C31.4221 13.9882 31.3752 14.405 31.2073 14.7665C31.2136 14.7809 31.2194 14.7958 31.2245 14.8111L31.5931 15.9229C31.6735 16.1655 31.8669 16.3538 32.1116 16.4277L33.1445 16.7399C33.4088 16.8198 33.5584 17.0988 33.4785 17.3631C33.3986 17.6275 33.1196 17.777 32.8552 17.6971L31.8223 17.385C31.2663 17.2169 30.8267 16.789 30.6439 16.2376L30.4291 15.5899L29.5458 16.0947C29.3599 16.2009 29.2254 16.3785 29.1734 16.5863L28.6636 18.6254C28.5966 18.8933 28.3252 19.0562 28.0573 18.9893C27.7894 18.9223 27.6265 18.6508 27.6935 18.3829L28.2033 16.3438C28.3213 15.8715 28.6271 15.4679 29.0497 15.2264L29.241 15.1171L28.8841 13.3323C28.5219 13.8672 27.9918 14.272 27.3722 14.4785C27.1102 14.5658 26.827 14.4243 26.7397 14.1623C26.6524 13.9003 26.794 13.6172 27.0559 13.5298C27.5476 13.366 27.9539 13.0135 28.1857 12.55L28.3439 12.2335C28.8347 11.2521 30.0862 10.9412 30.9791 11.579L31.2761 11.7912C31.8007 12.1659 32.2645 12.619 32.6512 13.1347L33.0783 13.7042C33.244 13.9251 33.1992 14.2385 32.9783 14.4042C32.7574 14.5699 32.444 14.5251 32.2783 14.3042L31.8512 13.7347Z" fill="#BFBEFC"/>
<path fill-rule="evenodd" clip-rule="evenodd" d="M10.9999 48.2989V55.3903C10.9999 55.5951 10.9023 55.7876 10.7372 55.9087L10.0229 56.4325C9.59826 56.7439 8.99987 56.4407 8.99987 55.9141V47.6441C8.99987 47.0848 9.66479 46.7923 10.0771 47.1702L10.7914 47.825C10.9242 47.9468 10.9999 48.1187 10.9999 48.2989ZM13.4991 48.1469C13.4991 48.6795 13.9309 49.1112 14.4634 49.1112C14.996 49.1112 15.4277 48.6795 15.4277 48.1469C15.4277 47.6144 14.996 47.1826 14.4634 47.1826C13.9309 47.1826 13.4991 47.6144 13.4991 48.1469ZM16.8512 51.7347C16.6489 51.465 16.4216 51.2156 16.1725 50.9898L16.3202 51.5809C16.4221 51.9882 16.3752 52.405 16.2073 52.7665C16.2136 52.7809 16.2194 52.7958 16.2245 52.8111L16.5931 53.9229C16.6735 54.1655 16.8669 54.3538 17.1116 54.4277L18.1445 54.7399C18.4088 54.8198 18.5584 55.0988 18.4785 55.3631C18.3986 55.6275 18.1196 55.777 17.8552 55.6971L16.8223 55.385C16.2663 55.2169 15.8267 54.789 15.6439 54.2376L15.4291 53.5899L14.5458 54.0947C14.3599 54.2009 14.2254 54.3785 14.1734 54.5863L13.6636 56.6254C13.5966 56.8933 13.3252 57.0562 13.0573 56.9893C12.7894 56.9223 12.6265 56.6508 12.6935 56.3829L13.2033 54.3438C13.3213 53.8715 13.6271 53.4679 14.0497 53.2264L14.241 53.1171L13.8841 51.3323C13.5219 51.8672 12.9918 52.272 12.3722 52.4785C12.1102 52.5658 11.827 52.4243 11.7397 52.1623C11.6524 51.9003 11.794 51.6172 12.0559 51.5298C12.5476 51.366 12.9539 51.0135 13.1857 50.55L13.3439 50.2335C13.8347 49.2521 15.0862 48.9412 15.9791 49.579L16.2761 49.7912C16.8007 50.1659 17.2645 50.619 17.6512 51.1347L18.0783 51.7042C18.244 51.9251 18.1992 52.2385 17.9783 52.4042C17.7574 52.5699 17.444 52.5251 17.2783 52.3042L16.8512 51.7347Z" fill="#BFBEFC"/>
<path fill-rule="evenodd" clip-rule="evenodd" d="M702 10.2989V17.3903C702 17.5951 702.098 17.7876 702.263 17.9087L702.977 18.4325C703.402 18.7439 704 18.4407 704 17.9141V9.64413C704 9.08477 703.335 8.79227 702.923 9.17024L702.209 9.825C702.076 9.94677 702 10.1187 702 10.2989ZM699.501 10.1469C699.501 10.6795 699.069 11.1112 698.537 11.1112C698.004 11.1112 697.572 10.6795 697.572 10.1469C697.572 9.61435 698.004 9.18262 698.537 9.18262C699.069 9.18262 699.501 9.61435 699.501 10.1469ZM696.149 13.7347C696.351 13.465 696.578 13.2156 696.828 12.9898L696.68 13.5809C696.578 13.9882 696.625 14.405 696.793 14.7665C696.786 14.7809 696.781 14.7958 696.776 14.8111L696.407 15.9229C696.326 16.1655 696.133 16.3538 695.888 16.4277L694.855 16.7399C694.591 16.8198 694.442 17.0988 694.522 17.3631C694.601 17.6275 694.88 17.777 695.145 17.6971L696.178 17.385C696.734 17.2169 697.173 16.789 697.356 16.2376L697.571 15.5899L698.454 16.0947C698.64 16.2009 698.775 16.3785 698.827 16.5863L699.336 18.6254C699.403 18.8933 699.675 19.0562 699.943 18.9893C700.211 18.9223 700.374 18.6508 700.307 18.3829L699.797 16.3438C699.679 15.8715 699.373 15.4679 698.95 15.2264L698.759 15.1171L699.116 13.3323C699.478 13.8672 700.008 14.272 700.628 14.4785C700.89 14.5658 701.173 14.4243 701.26 14.1623C701.348 13.9003 701.206 13.6172 700.944 13.5298C700.452 13.366 700.046 13.0135 699.814 12.55L699.656 12.2335C699.165 11.2521 697.914 10.9412 697.021 11.579L696.724 11.7912C696.199 12.1659 695.736 12.619 695.349 13.1347L694.922 13.7042C694.756 13.9251 694.801 14.2385 695.022 14.4042C695.243 14.5699 695.556 14.5251 695.722 14.3042L696.149 13.7347Z" fill="#BFBEFC"/>
<path fill-rule="evenodd" clip-rule="evenodd" d="M719 48.2989V55.3903C719 55.5951 719.098 55.7876 719.263 55.9087L719.977 56.4325C720.402 56.7439 721 56.4407 721 55.9141V47.6441C721 47.0848 720.335 46.7923 719.923 47.1702L719.209 47.825C719.076 47.9468 719 48.1187 719 48.2989ZM716.501 48.1469C716.501 48.6795 716.069 49.1112 715.537 49.1112C715.004 49.1112 714.572 48.6795 714.572 48.1469C714.572 47.6144 715.004 47.1826 715.537 47.1826C716.069 47.1826 716.501 47.6144 716.501 48.1469ZM713.149 51.7347C713.351 51.465 713.578 51.2156 713.828 50.9898L713.68 51.5809C713.578 51.9882 713.625 52.405 713.793 52.7665C713.786 52.7809 713.781 52.7958 713.776 52.8111L713.407 53.9229C713.326 54.1655 713.133 54.3538 712.888 54.4277L711.855 54.7399C711.591 54.8198 711.442 55.0988 711.522 55.3631C711.601 55.6275 711.88 55.777 712.145 55.6971L713.178 55.385C713.734 55.2169 714.173 54.789 714.356 54.2376L714.571 53.5899L715.454 54.0947C715.64 54.2009 715.775 54.3785 715.827 54.5863L716.336 56.6254C716.403 56.8933 716.675 57.0562 716.943 56.9893C717.211 56.9223 717.374 56.6508 717.307 56.3829L716.797 54.3438C716.679 53.8715 716.373 53.4679 715.95 53.2264L715.759 53.1171L716.116 51.3323C716.478 51.8672 717.008 52.272 717.628 52.4785C717.89 52.5658 718.173 52.4243 718.26 52.1623C718.348 51.9003 718.206 51.6172 717.944 51.5298C717.452 51.366 717.046 51.0135 716.814 50.55L716.656 50.2335C716.165 49.2521 714.914 48.9412 714.021 49.579L713.724 49.7912C713.199 50.1659 712.736 50.619 712.349 51.1347L711.922 51.7042C711.756 51.9251 711.801 52.2385 712.022 52.4042C712.243 52.5699 712.556 52.5251 712.722 52.3042L713.149 51.7347Z" fill="#BFBEFC"/>
<path fill-rule="evenodd" clip-rule="evenodd" d="M621 83.5C621 83.9448 621 84.1673 620.924 84.3424C620.874 84.4583 620.8 84.5636 620.707 84.6523C620.614 84.741 620.504 84.8114 620.383 84.8593C620.271 84.9037 620.141 84.9209 619.951 84.9276C619.814 84.9306 619.68 84.9667 619.562 85.0327C619.443 85.0986 619.345 85.1922 619.275 85.3046C619.208 85.4187 619.172 85.5471 619.171 85.6779C619.171 85.8086 619.205 85.9374 619.271 86.0521C619.36 86.2129 619.409 86.3289 619.425 86.4435C619.442 86.5678 619.433 86.6941 619.399 86.8152C619.365 86.9363 619.307 87.0499 619.227 87.1494C619.105 87.2995 618.904 87.4107 618.502 87.633L618.5 87.6338L618.499 87.6346C618.096 87.856 617.894 87.967 617.698 87.9918C617.567 88.0082 617.435 88 617.308 87.9675C617.181 87.9351 617.062 87.8791 616.958 87.8028C616.862 87.7326 616.782 87.6334 616.68 87.4801C616.532 87.2544 616.279 87.1093 616 87.1093C615.863 87.111 615.729 87.1459 615.61 87.2108C615.491 87.2756 615.391 87.3683 615.32 87.4801C615.219 87.6334 615.138 87.7322 615.042 87.8028C614.938 87.8791 614.819 87.9351 614.692 87.9675C614.565 88 614.433 88.0082 614.303 87.9918C614.106 87.9676 613.906 87.8574 613.509 87.6381L613.5 87.6334L613.498 87.6323C613.096 87.4106 612.894 87.2995 612.774 87.1494C612.694 87.0499 612.635 86.9363 612.601 86.8152C612.567 86.6941 612.558 86.5678 612.576 86.4435C612.592 86.3289 612.641 86.2129 612.73 86.0526C612.795 85.9378 612.83 85.8089 612.829 85.6781C612.828 85.5473 612.793 85.4188 612.726 85.3046C612.586 85.0741 612.328 84.9371 612.049 84.9276C611.859 84.9209 611.729 84.9032 611.618 84.8593C611.496 84.8114 611.386 84.741 611.293 84.6523C611.2 84.5636 611.126 84.4583 611.076 84.3424C611 84.1673 611 83.9448 611 83.5C611 83.0552 611 82.8327 611.076 82.6576C611.126 82.5417 611.2 82.4364 611.293 82.3477C611.386 82.259 611.496 82.1886 611.618 82.1407C611.729 82.0963 611.859 82.0791 612.049 82.0724C612.328 82.0629 612.586 81.9259 612.726 81.6954C612.793 81.5812 612.828 81.4527 612.829 81.3219C612.83 81.1911 612.795 81.0622 612.73 80.9474C612.641 80.7871 612.592 80.6711 612.576 80.5565C612.558 80.4322 612.567 80.3059 612.601 80.1848C612.635 80.0637 612.694 79.9501 612.774 79.8506C612.895 79.7005 613.096 79.5893 613.499 79.367L613.5 79.3662L613.502 79.3654C613.904 79.144 614.106 79.033 614.303 79.0082C614.433 78.9918 614.565 79.0001 614.692 79.0325C614.819 79.0649 614.938 79.1209 615.042 79.1972C615.138 79.2674 615.219 79.3666 615.32 79.5199C615.468 79.7456 615.721 79.8907 616 79.8907C616.279 79.8907 616.532 79.7456 616.681 79.5199C616.782 79.3666 616.862 79.2678 616.958 79.1972C617.062 79.1209 617.181 79.0649 617.308 79.0325C617.435 79.0001 617.567 78.9918 617.698 79.0082C617.894 79.0324 618.094 79.1426 618.491 79.3619L618.5 79.3666C618.904 79.5891 619.105 79.7008 619.227 79.8506C619.388 80.0514 619.459 80.3052 619.425 80.5561C619.409 80.6711 619.36 80.7871 619.271 80.9474C619.205 81.0622 619.171 81.1911 619.171 81.3219C619.172 81.4527 619.208 81.5812 619.275 81.6954C619.345 81.8078 619.443 81.9014 619.562 81.9673C619.68 82.0333 619.814 82.0694 619.951 82.0724C620.141 82.0791 620.271 82.0968 620.383 82.1407C620.504 82.1886 620.614 82.259 620.707 82.3477C620.8 82.4364 620.874 82.5417 620.924 82.6576C621 82.8327 621 83.0552 621 83.5ZM614.5 83.5C614.5 84.3284 615.171 85 616 85C616.828 85 617.5 84.3284 617.5 83.5C617.5 82.6716 616.828 82 616 82C615.171 82 614.5 82.6716 614.5 83.5Z" fill="#BFBEFC"/>
<path fill-rule="evenodd" clip-rule="evenodd" d="M578 19.5C578 19.9448 578 20.1673 577.924 20.3424C577.874 20.4583 577.8 20.5636 577.707 20.6523C577.614 20.741 577.504 20.8114 577.383 20.8593C577.271 20.9037 577.141 20.9209 576.951 20.9276C576.814 20.9306 576.68 20.9667 576.562 21.0327C576.443 21.0986 576.345 21.1922 576.275 21.3046C576.208 21.4187 576.172 21.5471 576.171 21.6779C576.171 21.8086 576.205 21.9374 576.271 22.0521C576.36 22.2129 576.409 22.3289 576.425 22.4435C576.442 22.5678 576.433 22.6941 576.399 22.8152C576.365 22.9363 576.307 23.0499 576.227 23.1494C576.105 23.2995 575.904 23.4107 575.502 23.633L575.5 23.6338L575.499 23.6346C575.096 23.856 574.894 23.967 574.698 23.9918C574.567 24.0082 574.435 24 574.308 23.9675C574.181 23.9351 574.062 23.8791 573.958 23.8028C573.862 23.7326 573.782 23.6334 573.68 23.4801C573.532 23.2544 573.279 23.1093 573 23.1093C572.863 23.111 572.729 23.1459 572.61 23.2108C572.491 23.2756 572.391 23.3683 572.32 23.4801C572.219 23.6334 572.138 23.7322 572.042 23.8028C571.938 23.8791 571.819 23.9351 571.692 23.9675C571.565 24 571.433 24.0082 571.303 23.9918C571.106 23.9676 570.906 23.8574 570.509 23.6381L570.5 23.6334L570.498 23.6323C570.096 23.4106 569.894 23.2995 569.774 23.1494C569.694 23.0499 569.635 22.9363 569.601 22.8152C569.567 22.6941 569.558 22.5678 569.576 22.4435C569.592 22.3289 569.641 22.2129 569.73 22.0526C569.795 21.9378 569.83 21.8089 569.829 21.6781C569.828 21.5473 569.793 21.4188 569.726 21.3046C569.586 21.0741 569.328 20.9371 569.049 20.9276C568.859 20.9209 568.729 20.9032 568.618 20.8593C568.496 20.8114 568.386 20.741 568.293 20.6523C568.2 20.5636 568.126 20.4583 568.076 20.3424C568 20.1673 568 19.9448 568 19.5C568 19.0552 568 18.8327 568.076 18.6576C568.126 18.5417 568.2 18.4364 568.293 18.3477C568.386 18.259 568.496 18.1886 568.618 18.1407C568.729 18.0963 568.859 18.0791 569.049 18.0724C569.328 18.0629 569.586 17.9259 569.726 17.6954C569.793 17.5812 569.828 17.4527 569.829 17.3219C569.83 17.1911 569.795 17.0622 569.73 16.9474C569.641 16.7871 569.592 16.6711 569.576 16.5565C569.558 16.4322 569.567 16.3059 569.601 16.1848C569.635 16.0637 569.694 15.9501 569.774 15.8506C569.895 15.7005 570.096 15.5893 570.499 15.367L570.5 15.3662L570.502 15.3654C570.904 15.144 571.106 15.033 571.303 15.0082C571.433 14.9918 571.565 15.0001 571.692 15.0325C571.819 15.0649 571.938 15.1209 572.042 15.1972C572.138 15.2674 572.219 15.3666 572.32 15.5199C572.468 15.7456 572.721 15.8907 573 15.8907C573.279 15.8907 573.532 15.7456 573.681 15.5199C573.782 15.3666 573.862 15.2678 573.958 15.1972C574.062 15.1209 574.181 15.0649 574.308 15.0325C574.435 15.0001 574.567 14.9918 574.698 15.0082C574.894 15.0324 575.094 15.1426 575.491 15.3619L575.5 15.3666C575.904 15.5891 576.105 15.7008 576.227 15.8506C576.388 16.0514 576.459 16.3052 576.425 16.5561C576.409 16.6711 576.36 16.7871 576.271 16.9474C576.205 17.0622 576.171 17.1911 576.171 17.3219C576.172 17.4527 576.208 17.5812 576.275 17.6954C576.345 17.8078 576.443 17.9014 576.562 17.9673C576.68 18.0333 576.814 18.0694 576.951 18.0724C577.141 18.0791 577.271 18.0968 577.383 18.1407C577.504 18.1886 577.614 18.259 577.707 18.3477C577.8 18.4364 577.874 18.5417 577.924 18.6576C578 18.8327 578 19.0552 578 19.5ZM571.5 19.5C571.5 20.3284 572.171 21 573 21C573.828 21 574.5 20.3284 574.5 19.5C574.5 18.6716 573.828 18 573 18C572.171 18 571.5 18.6716 571.5 19.5Z" fill="#BFBEFC"/>
<path fill-rule="evenodd" clip-rule="evenodd" d="M75.0001 82.5C75.0001 82.9448 75.0001 83.1673 74.9241 83.3424C74.8738 83.4583 74.8001 83.5636 74.7072 83.6523C74.6143 83.741 74.504 83.8114 74.3826 83.8593C74.2711 83.9037 74.1411 83.9209 73.9511 83.9276C73.8141 83.9306 73.6801 83.9667 73.5618 84.0327C73.4434 84.0986 73.3446 84.1922 73.2746 84.3046C73.2076 84.4187 73.1721 84.5471 73.1714 84.6779C73.1707 84.8086 73.2049 84.9374 73.2706 85.0521C73.3596 85.2129 73.4086 85.3289 73.4246 85.4435C73.4417 85.5678 73.4331 85.6941 73.3991 85.8152C73.3652 85.9363 73.3065 86.0499 73.2266 86.1494C73.1052 86.2995 72.904 86.4107 72.5015 86.633L72.5001 86.6338L72.4986 86.6346C72.0961 86.856 71.8943 86.967 71.6976 86.9918C71.5673 87.0082 71.435 87 71.3081 86.9675C71.1812 86.9351 71.0623 86.8791 70.9581 86.8028C70.8621 86.7326 70.7816 86.6334 70.6801 86.4801C70.5321 86.2544 70.2791 86.1093 70.0001 86.1093C69.863 86.111 69.7286 86.1459 69.6096 86.2108C69.4906 86.2756 69.3908 86.3683 69.3196 86.4801C69.2186 86.6334 69.1381 86.7322 69.0421 86.8028C68.9378 86.8791 68.8189 86.9351 68.692 86.9675C68.5651 87 68.4328 87.0082 68.3026 86.9918C68.1065 86.9676 67.9065 86.8574 67.5088 86.6381L67.5001 86.6334L67.4981 86.6323C67.0959 86.4106 66.8944 86.2995 66.7736 86.1494C66.6936 86.0499 66.635 85.9363 66.601 85.8152C66.567 85.6941 66.5584 85.5678 66.5756 85.4435C66.5916 85.3289 66.6406 85.2129 66.7296 85.0526C66.7954 84.9378 66.8295 84.8089 66.8288 84.6781C66.8281 84.5473 66.7926 84.4188 66.7256 84.3046C66.5861 84.0741 66.3281 83.9371 66.0491 83.9276C65.8591 83.9209 65.7291 83.9032 65.6176 83.8593C65.4962 83.8114 65.3858 83.741 65.2929 83.6523C65.2 83.5636 65.1263 83.4583 65.0761 83.3424C65.0001 83.1673 65.0001 82.9448 65.0001 82.5C65.0001 82.0552 65.0001 81.8327 65.0761 81.6576C65.1263 81.5417 65.2 81.4364 65.2929 81.3477C65.3858 81.259 65.4962 81.1886 65.6176 81.1407C65.7291 81.0963 65.8591 81.0791 66.0491 81.0724C66.3281 81.0629 66.5856 80.9259 66.7256 80.6954C66.7926 80.5812 66.8281 80.4527 66.8288 80.3219C66.8295 80.1911 66.7954 80.0622 66.7296 79.9474C66.6406 79.7871 66.5916 79.6711 66.5756 79.5565C66.5584 79.4322 66.567 79.3059 66.601 79.1848C66.635 79.0637 66.6936 78.9501 66.7736 78.8506C66.8949 78.7005 67.0961 78.5893 67.4986 78.367L67.5001 78.3662L67.5015 78.3654C67.9041 78.144 68.1058 78.033 68.3026 78.0082C68.4328 77.9918 68.5651 78.0001 68.692 78.0325C68.8189 78.0649 68.9378 78.1209 69.0421 78.1972C69.1381 78.2674 69.2186 78.3666 69.3201 78.5199C69.4681 78.7456 69.7211 78.8907 70.0001 78.8907C70.2791 78.8907 70.5321 78.7456 70.6806 78.5199C70.7816 78.3666 70.8621 78.2678 70.9581 78.1972C71.0623 78.1209 71.1812 78.0649 71.3081 78.0325C71.435 78.0001 71.5673 77.9918 71.6976 78.0082C71.8936 78.0324 72.0937 78.1426 72.4914 78.3619L72.5001 78.3666C72.9036 78.5891 73.1051 78.7008 73.2266 78.8506C73.3879 79.0514 73.4591 79.3052 73.4246 79.5561C73.4086 79.6711 73.3596 79.7871 73.2706 79.9474C73.2048 80.0622 73.1706 80.1911 73.1713 80.3219C73.172 80.4527 73.2075 80.5812 73.2746 80.6954C73.3446 80.8078 73.4434 80.9014 73.5618 80.9673C73.6801 81.0333 73.8141 81.0694 73.9511 81.0724C74.1406 81.0791 74.2711 81.0968 74.3826 81.1407C74.504 81.1886 74.6143 81.259 74.7072 81.3477C74.8001 81.4364 74.8738 81.5417 74.9241 81.6576C75.0001 81.8327 75.0001 82.0552 75.0001 82.5ZM68.4995 82.5C68.4995 83.3284 69.1711 84 69.9995 84C70.8279 84 71.4995 83.3284 71.4995 82.5C71.4995 81.6716 70.8279 81 69.9995 81C69.1711 81 68.4995 81.6716 68.4995 82.5Z" fill="#BFBEFC"/>
<path d="M621.833 19H617.833L619.333 23H620.333L621.833 19Z" fill="#BFBEFC"/>
<path fill-rule="evenodd" clip-rule="evenodd" d="M617.422 18.7152C617.516 18.5804 617.669 18.5 617.833 18.5H621.833C621.997 18.5 622.151 18.5804 622.244 18.7152C622.338 18.85 622.359 19.022 622.301 19.1756L620.801 23.1756C620.728 23.3707 620.542 23.5 620.333 23.5H619.333C619.125 23.5 618.938 23.3707 618.865 23.1756L617.365 19.1756C617.308 19.022 617.329 18.85 617.422 18.7152ZM618.555 19.5L619.68 22.5H619.987L621.112 19.5H618.555Z" fill="#BFBEFC"/>
<path d="M623.167 23L627.167 23L625.667 19L624.667 19L623.167 23Z" fill="#BFBEFC"/>
<path fill-rule="evenodd" clip-rule="evenodd" d="M627.578 23.2848C627.484 23.4196 627.331 23.5 627.167 23.5L623.167 23.5C623.003 23.5 622.849 23.4196 622.756 23.2848C622.662 23.15 622.641 22.978 622.699 22.8244L624.199 18.8244C624.272 18.6293 624.458 18.5 624.667 18.5L625.667 18.5C625.875 18.5 626.062 18.6293 626.135 18.8244L627.635 22.8244C627.692 22.978 627.671 23.15 627.578 23.2848ZM626.445 22.5L625.32 19.5L625.013 19.5L623.888 22.5L626.445 22.5Z" fill="#BFBEFC"/>
<path d="M621.167 16.3333C621.167 17.0697 620.57 17.6667 619.833 17.6667C619.097 17.6667 618.5 17.0697 618.5 16.3333C618.5 15.597 619.097 15 619.833 15C620.57 15 621.167 15.597 621.167 16.3333Z" fill="#BFBEFC"/>
<path d="M626.5 16.3333C626.5 17.0697 625.903 17.6667 625.167 17.6667C624.43 17.6667 623.833 17.0697 623.833 16.3333C623.833 15.597 624.43 15 625.167 15C625.903 15 626.5 15.597 626.5 16.3333Z" fill="#BFBEFC"/>
<path d="M663.833 19H659.833L661.333 23H662.333L663.833 19Z" fill="#BFBEFC"/>
<path fill-rule="evenodd" clip-rule="evenodd" d="M659.422 18.7152C659.516 18.5804 659.669 18.5 659.833 18.5H663.833C663.997 18.5 664.151 18.5804 664.244 18.7152C664.338 18.85 664.359 19.022 664.301 19.1756L662.801 23.1756C662.728 23.3707 662.542 23.5 662.333 23.5H661.333C661.125 23.5 660.938 23.3707 660.865 23.1756L659.365 19.1756C659.308 19.022 659.329 18.85 659.422 18.7152ZM660.555 19.5L661.68 22.5H661.987L663.112 19.5H660.555Z" fill="#BFBEFC"/>
<path d="M665.167 23L669.167 23L667.667 19L666.667 19L665.167 23Z" fill="#BFBEFC"/>
<path fill-rule="evenodd" clip-rule="evenodd" d="M669.578 23.2848C669.484 23.4196 669.331 23.5 669.167 23.5L665.167 23.5C665.003 23.5 664.849 23.4196 664.756 23.2848C664.662 23.15 664.641 22.978 664.699 22.8244L666.199 18.8244C666.272 18.6293 666.458 18.5 666.667 18.5L667.667 18.5C667.875 18.5 668.062 18.6293 668.135 18.8244L669.635 22.8244C669.692 22.978 669.671 23.15 669.578 23.2848ZM668.445 22.5L667.32 19.5L667.013 19.5L665.888 22.5L668.445 22.5Z" fill="#BFBEFC"/>
<path d="M663.167 16.3333C663.167 17.0697 662.57 17.6667 661.833 17.6667C661.097 17.6667 660.5 17.0697 660.5 16.3333C660.5 15.597 661.097 15 661.833 15C662.57 15 663.167 15.597 663.167 16.3333Z" fill="#BFBEFC"/>
<path d="M668.5 16.3333C668.5 17.0697 667.903 17.6667 667.167 17.6667C666.43 17.6667 665.833 17.0697 665.833 16.3333C665.833 15.597 666.43 15 667.167 15C667.903 15 668.5 15.597 668.5 16.3333Z" fill="#BFBEFC"/>
<path d="M66 19.875C66 18.8395 66.8395 18 67.875 18H74.125C75.1605 18 76 18.8395 76 19.875V22.125C76 23.1605 75.1605 24 74.125 24H67.875C66.8395 24 66 23.1605 66 22.125V19.875Z" fill="#BFBEFC"/>
<path fill-rule="evenodd" clip-rule="evenodd" d="M74.125 18.625H67.875C67.1846 18.625 66.625 19.1846 66.625 19.875V22.125C66.625 22.8154 67.1846 23.375 67.875 23.375H74.125C74.8154 23.375 75.375 22.8154 75.375 22.125V19.875C75.375 19.1846 74.8154 18.625 74.125 18.625ZM67.875 18C66.8395 18 66 18.8395 66 19.875V22.125C66 23.1605 66.8395 24 67.875 24H74.125C75.1605 24 76 23.1605 76 22.125V19.875C76 18.8395 75.1605 18 74.125 18H67.875Z" fill="#BFBEFC"/>
<path fill-rule="evenodd" clip-rule="evenodd" d="M71.5 17H70.5C69.9477 17 69.5 17.4477 69.5 18C69.5 18.5523 69.9477 19 70.5 19H71.5C72.0523 19 72.5 18.5523 72.5 18C72.5 17.4477 72.0523 17 71.5 17ZM70.5 16C69.3954 16 68.5 16.8954 68.5 18C68.5 19.1046 69.3954 20 70.5 20H71.5C72.6046 20 73.5 19.1046 73.5 18C73.5 16.8954 72.6046 16 71.5 16H70.5Z" fill="#BFBEFC"/>
<path fill-rule="evenodd" clip-rule="evenodd" d="M438.347 14.5C438.02 14.5 437.891 14.7124 437.891 14.8186C437.891 15.0947 437.667 15.3186 437.391 15.3186C437.115 15.3186 436.891 15.0947 436.891 14.8186C436.891 14.0205 437.618 13.5 438.347 13.5C439.076 13.5 439.803 14.0204 439.803 14.8186C439.803 15.1616 439.671 15.4792 439.442 15.7171C439.375 15.7857 439.302 15.8547 439.239 15.9141C439.228 15.9246 439.217 15.9347 439.206 15.9445C439.178 15.9717 439.151 15.9973 439.126 16.0218C439.297 16.0777 439.462 16.1547 439.615 16.2517L439.618 16.2535L442.963 18.4007C443.456 18.7172 443.608 19.2631 443.425 19.7337C443.249 20.1873 442.792 20.5 442.234 20.5H434.766C434.214 20.5 433.76 20.1934 433.58 19.7457C433.392 19.2811 433.534 18.7376 434.017 18.4146L437.212 16.2739C437.442 16.1219 437.699 16.0159 437.967 15.9596C438.039 15.7503 438.167 15.5847 438.272 15.4666C438.355 15.3739 438.445 15.2885 438.52 15.2169C438.533 15.2048 438.546 15.1931 438.558 15.1818C438.622 15.1218 438.674 15.0725 438.721 15.0232C438.773 14.9696 438.803 14.8999 438.803 14.8186C438.803 14.7125 438.674 14.5 438.347 14.5ZM438.369 16.9136C438.151 16.9232 437.941 16.991 437.765 17.1073L434.573 19.2454C434.573 19.2454 434.573 19.2453 434.573 19.2454C434.516 19.2834 434.505 19.3138 434.503 19.3222C434.499 19.333 434.498 19.3492 434.507 19.372C434.524 19.4134 434.591 19.5 434.766 19.5H442.234C442.411 19.5 442.477 19.4122 442.493 19.3709C442.502 19.3479 442.501 19.3315 442.497 19.3203C442.494 19.3115 442.482 19.2803 442.423 19.2421L439.081 17.0969C439.08 17.0966 439.08 17.0963 439.079 17.096C438.886 16.9739 438.655 16.9091 438.419 16.9128L438.369 16.9136Z" fill="#BFBEFC"/>
<rect x="483.557" y="100.325" width="45.292" height="2.67532" fill="#E5E7EA"/>
<rect x="688.703" y="100.325" width="21.3139" height="2.67532" fill="#E5E7EA"/>
<rect x="419.615" y="100.325" width="45.292" height="2.67532" fill="#E5E7EA"/>
<rect x="355.674" y="100.325" width="45.292" height="2.67532" fill="#E5E7EA"/>
<rect x="291.732" y="100.325" width="45.292" height="2.67532" fill="#E5E7EA"/>
<rect x="227.791" y="100.325" width="45.292" height="2.67532" fill="#E5E7EA"/>
<rect x="163.85" y="100.325" width="45.292" height="2.67532" fill="#E5E7EA"/>
<rect x="99.9082" y="100.325" width="45.292" height="2.67532" fill="#E5E7EA"/>
<rect x="18.6484" y="100.325" width="19.9818" height="2.67532" fill="#E5E7EA"/>
<rect x="483.557" width="45.292" height="2.67532" fill="#E5E7EA"/>
<rect x="688.703" width="21.3139" height="2.67532" fill="#E5E7EA"/>
<rect x="419.615" width="45.292" height="2.67532" fill="#E5E7EA"/>
<rect x="355.674" width="45.292" height="2.67532" fill="#E5E7EA"/>
<rect x="291.732" width="45.292" height="2.67532" fill="#E5E7EA"/>
<rect x="227.791" width="45.292" height="2.67532" fill="#E5E7EA"/>
<rect x="163.85" width="45.292" height="2.67532" fill="#E5E7EA"/>
<rect x="99.9082" width="45.292" height="2.67532" fill="#E5E7EA"/>
<rect x="18.6484" width="19.9818" height="2.67532" fill="#E5E7EA"/>
</svg>
