<svg width="18" height="18" viewBox="0 0 18 18" fill="none" xmlns="http://www.w3.org/2000/svg">
    <path d="M6 6V12C6 12.5523 6.44772 13 7 13H12C13.1046 13 14 12.1046 14 11V7C14 5.89543 13.1046 5 12 5H7C6.44772 5 6 5.44772 6 6Z" fill="#9761FF" />
    <path d="M4 6V12C4 12.5523 4.44772 13 5 13C5.55228 13 6 12.5523 6 12V6C6 5.44772 5.55228 5 5 5C4.44772 5 4 5.44772 4 6Z" fill="#9761FF" />
    <path d="M7 14H11" stroke="#9761FF" stroke-linecap="round" />
    <path d="M7 4H11" stroke="#9761FF" stroke-linecap="round" />
</svg>