<svg width="19" height="19" viewBox="0 0 19 19" fill="none" xmlns="http://www.w3.org/2000/svg">
    <path d="M11.6111 1.72289C11.6111 1.48668 11.4515 1.27876 11.2202 1.23088C10.6648 1.11594 10.0895 1.05554 9.49999 1.05554C4.83625 1.05554 1.05554 4.83625 1.05554 9.49999C1.05554 14.1637 4.83625 17.9444 9.49999 17.9444C14.1637 17.9444 17.9444 14.1637 17.9444 9.49999C17.9444 8.91052 17.884 8.33516 17.7691 7.77976C17.7212 7.54845 17.5133 7.38888 17.2771 7.38888V7.38888C16.9308 7.38888 16.6822 7.72283 16.7491 8.06259C16.8408 8.52754 16.8889 9.00815 16.8889 9.49999C16.8889 13.5808 13.5808 16.8889 9.49999 16.8889C5.41922 16.8889 2.1111 13.5808 2.1111 9.49999C2.1111 5.41922 5.41922 2.1111 9.49999 2.1111C9.99182 2.1111 10.4724 2.15915 10.9374 2.25082C11.2771 2.31781 11.6111 2.06919 11.6111 1.72289V1.72289Z" fill="#121212" />
    <path fill-rule="evenodd" clip-rule="evenodd" d="M9.50001 5.80554C9.79149 5.80554 10.0278 6.04184 10.0278 6.33332L10.0278 12.6667C10.0278 12.9581 9.79149 13.1944 9.50001 13.1944C9.20852 13.1944 8.97223 12.9581 8.97223 12.6667L8.97223 6.33332C8.97223 6.04184 9.20852 5.80554 9.50001 5.80554Z" fill="#121212" />
    <path fill-rule="evenodd" clip-rule="evenodd" d="M13.1945 9.49998C13.1945 9.79146 12.9582 10.0278 12.6667 10.0278L6.33335 10.0278C6.04186 10.0278 5.80557 9.79146 5.80557 9.49998C5.80557 9.20849 6.04186 8.9722 6.33335 8.9722L12.6667 8.9722C12.9582 8.9722 13.1945 9.20849 13.1945 9.49998Z" fill="#121212" />
    <path fill-rule="evenodd" clip-rule="evenodd" d="M14.7778 1.58331C15.0693 1.58331 15.3056 1.81961 15.3056 2.11109V6.33331C15.3056 6.6248 15.0693 6.86109 14.7778 6.86109C14.4863 6.86109 14.25 6.6248 14.25 6.33331V2.11109C14.25 1.81961 14.4863 1.58331 14.7778 1.58331Z" fill="#121212" />
    <path fill-rule="evenodd" clip-rule="evenodd" d="M17.4166 4.22221C17.4166 4.51369 17.1803 4.74998 16.8888 4.74998L12.6666 4.74998C12.3751 4.74998 12.1388 4.51369 12.1388 4.22221C12.1388 3.93072 12.3751 3.69443 12.6666 3.69443L16.8888 3.69443C17.1803 3.69443 17.4166 3.93072 17.4166 4.22221Z" fill="#121212" />
</svg>