<svg width="25" height="25" viewBox="0 0 25 25" fill="none" xmlns="http://www.w3.org/2000/svg">
    <path fill-rule="evenodd" clip-rule="evenodd" d="M6.2034 20.6299C5.9322 20.3587 5.9322 19.919 6.2034 19.6478L12.6568 13.1944L6.2034 6.74103C5.9322 6.46983 5.9322 6.03013 6.2034 5.75893C6.47459 5.48773 6.91429 5.48773 7.18549 5.75893L14.1299 12.7034C14.4011 12.9746 14.4011 13.4143 14.1299 13.6855L7.18549 20.6299C6.91429 20.9011 6.4746 20.9011 6.2034 20.6299Z" fill="#BDBFC7" />
    <path fill-rule="evenodd" clip-rule="evenodd" d="M11.8694 20.6299C11.5982 20.3587 11.5982 19.919 11.8694 19.6478L18.3228 13.1944L11.8694 6.74103C11.5982 6.46983 11.5982 6.03013 11.8694 5.75893C12.1406 5.48773 12.5803 5.48773 12.8515 5.75893L19.796 12.7034C20.0671 12.9746 20.0671 13.4143 19.796 13.6855L12.8515 20.6299C12.5803 20.9011 12.1406 20.9011 11.8694 20.6299Z" fill="#BDBFC7" />
</svg>