<svg width="18" height="18" viewBox="0 0 18 18" fill="none" xmlns="http://www.w3.org/2000/svg">
    <path d="M3.35355 3.14645C3.54882 2.95118 3.8654 2.95118 4.06066 3.14645L14.5607 13.6464C14.7559 13.8417 14.7559 14.1583 14.5607 14.3536C14.3654 14.5488 14.0488 14.5488 13.8536 14.3536L11.9261 12.4261C11.694 12.4745 11.4535 12.5 11.2071 12.5H4.91421L5.56066 13.1464C5.75592 13.3417 5.75592 13.6583 5.56066 13.8536C5.3654 14.0488 5.04882 14.0488 4.85355 13.8536L3 12L4.85355 10.1464C5.04882 9.95118 5.3654 9.95118 5.56066 10.1464C5.75592 10.3417 5.75592 10.6583 5.56066 10.8536L4.91421 11.5H11L6 6.5H4.20711C3.93096 6.5 3.70711 6.27614 3.70711 6C3.70711 5.72386 3.93096 5.5 4.20711 5.5H5L3.35355 3.85355C3.15829 3.65829 3.15829 3.34171 3.35355 3.14645Z" fill="#BDBFC7" />
    <path d="M13.2018 11.2876C12.9975 11.0833 13.016 10.7496 13.1918 10.5204C13.515 10.0991 13.7071 9.57199 13.7071 9C13.7071 7.61929 12.5878 6.5 11.2071 6.5H8.62132C8.48871 6.5 8.36154 6.44732 8.26777 6.35355C7.95278 6.03857 8.17587 5.5 8.62132 5.5H11.2071C13.1401 5.5 14.7071 7.067 14.7071 9C14.7071 9.87349 14.3871 10.6723 13.858 11.2854C13.6871 11.4835 13.3868 11.4726 13.2018 11.2876Z" fill="#BDBFC7" />
</svg>