<svg width="25" height="25" viewBox="0 0 25 25" fill="none" xmlns="http://www.w3.org/2000/svg">
    <path fill-rule="evenodd" clip-rule="evenodd" d="M2.77782 4.86108C3.16135 4.86108 3.47226 5.172 3.47226 5.55553V15.4431H11.4703V7.53966C11.4703 7.15612 11.7813 6.84521 12.1648 6.84521H16.6667C20.1185 6.84521 22.9167 9.64343 22.9167 13.0952V19.4444C22.9167 19.8279 22.6058 20.1389 22.2223 20.1389C21.8387 20.1389 21.5278 19.8279 21.5278 19.4444V16.832H3.47226V19.4444C3.47226 19.8279 3.16135 20.1389 2.77782 20.1389C2.39429 20.1389 2.08337 19.8279 2.08337 19.4444V5.55553C2.08337 5.172 2.39429 4.86108 2.77782 4.86108ZM21.5278 15.4431V13.0952C21.5278 10.4105 19.3514 8.2341 16.6667 8.2341H12.8592V15.4431H21.5278Z" fill="#121212" />
    <path fill-rule="evenodd" clip-rule="evenodd" d="M7.47129 8.2341C6.36459 8.2341 5.48374 9.11656 5.48374 10.1852C5.48374 11.2538 6.36459 12.1362 7.47129 12.1362C8.57798 12.1362 9.45883 11.2538 9.45883 10.1852C9.45883 9.11656 8.57798 8.2341 7.47129 8.2341ZM4.09485 10.1852C4.09485 8.33162 5.61553 6.84521 7.47129 6.84521C9.32704 6.84521 10.8477 8.33162 10.8477 10.1852C10.8477 12.0387 9.32704 13.5251 7.47129 13.5251C5.61553 13.5251 4.09485 12.0387 4.09485 10.1852Z" fill="#121212" />
    <path fill-rule="evenodd" clip-rule="evenodd" d="M2.08337 13.4921C2.08337 13.1085 2.39429 12.7976 2.77782 12.7976H11.4943C11.8778 12.7976 12.1887 13.1085 12.1887 13.4921C12.1887 13.8756 11.8778 14.1865 11.4943 14.1865H2.77782C2.39429 14.1865 2.08337 13.8756 2.08337 13.4921Z" fill="#121212" />
</svg>