<svg xmlns="http://www.w3.org/2000/svg" width="96" height="95" viewBox="0 0 96 95" fill="none">
    <path fill-rule="evenodd" clip-rule="evenodd" d="M49.743 49.721H42.1339V41.0709H49.743C51.0979 41.0709 52.238 41.5087 53.1634 42.3845C54.0887 43.2437 54.5513 44.2517 54.5513 45.4083C54.5513 46.5484 54.0887 47.5564 53.1634 48.4321C52.238 49.2913 51.0979 49.721 49.743 49.721ZM34.5 56.5617H49.9908C53.4773 56.5617 56.3772 55.4712 58.6905 53.29C61.0038 51.1089 62.1604 48.4817 62.1604 45.4083C62.1604 42.3184 61.0038 39.6829 58.6905 37.5018C56.3772 35.3207 53.4773 34.2301 49.9908 34.2301H42.1339V27.8851H59.1366V21.0195H40.5C37.1863 21.0195 34.5 23.7058 34.5 27.0195V56.5617ZM34.5 66.6289V74.0002H62V66.6289H34.5Z" fill="#9761FF"/>
</svg>