<svg width="19" height="19" viewBox="0 0 19 19" fill="none" xmlns="http://www.w3.org/2000/svg">
    <path fill-rule="evenodd" clip-rule="evenodd" d="M3.69446 6.33332C3.69446 6.04184 3.93075 5.80554 4.22224 5.80554H15.8333C16.1248 5.80554 16.3611 6.04184 16.3611 6.33332C16.3611 6.6248 16.1248 6.8611 15.8333 6.8611H4.22224C3.93075 6.8611 3.69446 6.6248 3.69446 6.33332Z" fill="#121212" />
    <path fill-rule="evenodd" clip-rule="evenodd" d="M3.69446 9.49995C3.69446 9.20846 3.93075 8.97217 4.22224 8.97217H15.8333C16.1248 8.97217 16.3611 9.20846 16.3611 9.49995C16.3611 9.79143 16.1248 10.0277 15.8333 10.0277H4.22224C3.93075 10.0277 3.69446 9.79143 3.69446 9.49995Z" fill="#121212" />
    <path fill-rule="evenodd" clip-rule="evenodd" d="M3.69446 12.6667C3.69446 12.3752 3.93075 12.1389 4.22224 12.1389H15.8333C16.1248 12.1389 16.3611 12.3752 16.3611 12.6667C16.3611 12.9582 16.1248 13.1945 15.8333 13.1945H4.22224C3.93075 13.1945 3.69446 12.9582 3.69446 12.6667Z" fill="#121212" />
</svg>