<svg width="25" height="25" viewBox="0 0 25 25" fill="none" xmlns="http://www.w3.org/2000/svg">
    <path fill-rule="evenodd" clip-rule="evenodd" d="M6.97915 19.4697C7.55027 19.4697 8.01325 19.0067 8.01325 18.4356C8.01325 17.8645 7.55027 17.4015 6.97915 17.4015C6.40803 17.4015 5.94505 17.8645 5.94505 18.4356C5.94505 19.0067 6.40803 19.4697 6.97915 19.4697ZM6.97915 20.8333C8.30338 20.8333 9.37688 19.7598 9.37688 18.4356C9.37688 17.1113 8.30338 16.0378 6.97915 16.0378C5.65492 16.0378 4.58142 17.1113 4.58142 18.4356C4.58142 19.7598 5.65492 20.8333 6.97915 20.8333Z" fill="#121212" />
    <path fill-rule="evenodd" clip-rule="evenodd" d="M18.1684 19.4697C18.7395 19.4697 19.2025 19.0067 19.2025 18.4356C19.2025 17.8645 18.7395 17.4015 18.1684 17.4015C17.5972 17.4015 17.1343 17.8645 17.1343 18.4356C17.1343 19.0067 17.5972 19.4697 18.1684 19.4697ZM18.1684 20.8333C19.4926 20.8333 20.5661 19.7598 20.5661 18.4356C20.5661 17.1113 19.4926 16.0378 18.1684 16.0378C16.8441 16.0378 15.7706 17.1113 15.7706 18.4356C15.7706 19.7598 16.8441 20.8333 18.1684 20.8333Z" fill="#121212" />
    <path fill-rule="evenodd" clip-rule="evenodd" d="M21.0405 7.81102H4.11618C3.36307 7.81102 2.75255 8.42154 2.75255 9.17465V16.508C2.75255 17.2611 3.36306 17.8716 4.11618 17.8716H4.65132C4.60764 18.0527 4.5845 18.2417 4.5845 18.4361C4.5845 18.7163 4.63257 18.9853 4.7209 19.2353H4.11618C2.60995 19.2353 1.38892 18.0142 1.38892 16.508V9.17465C1.38892 7.66843 2.60995 6.44739 4.11618 6.44739H21.0405C22.5467 6.44739 23.7677 7.66842 23.7677 9.17465V16.508C23.7677 18.0142 22.5467 19.2353 21.0405 19.2353H20.4313C20.5197 18.9852 20.5678 18.7162 20.5678 18.4359C20.5678 18.2415 20.5447 18.0526 20.501 17.8716H21.0405C21.7936 17.8716 22.4041 17.2611 22.4041 16.508V9.17465C22.4041 8.42154 21.7936 7.81102 21.0405 7.81102ZM15.8391 17.8716H9.31313C9.35681 18.0527 9.37996 18.2417 9.37996 18.4361C9.37996 18.7163 9.33189 18.9853 9.24355 19.2353H15.9088C15.8204 18.9852 15.7723 18.7162 15.7723 18.4359C15.7723 18.2415 15.7955 18.0526 15.8391 17.8716Z" fill="#121212" />
    <path fill-rule="evenodd" clip-rule="evenodd" d="M1.50537 12.841C1.50537 12.4644 1.81063 12.1592 2.18719 12.1592H22.9675C23.3441 12.1592 23.6493 12.4644 23.6493 12.841C23.6493 13.2176 23.3441 13.5228 22.9675 13.5228H2.18719C1.81063 13.5228 1.50537 13.2176 1.50537 12.841Z" fill="#121212" />
    <path fill-rule="evenodd" clip-rule="evenodd" d="M7.1001 4.84844C7.1001 4.47189 7.40536 4.16663 7.78191 4.16663H16.5736C16.9501 4.16663 17.2554 4.47189 17.2554 4.84844C17.2554 5.225 16.9501 5.53026 16.5736 5.53026H7.78191C7.40536 5.53026 7.1001 5.225 7.1001 4.84844Z" fill="#121212" />
    <path fill-rule="evenodd" clip-rule="evenodd" d="M6.17949 7.3634C6.55611 7.3634 6.86142 7.66872 6.86142 8.04534V12.8416C6.86142 13.2182 6.55611 13.5236 6.17949 13.5236C5.80287 13.5236 5.49756 13.2182 5.49756 12.8416V8.04534C5.49756 7.66872 5.80287 7.3634 6.17949 7.3634Z" fill="#121212" />
    <path fill-rule="evenodd" clip-rule="evenodd" d="M12.5754 7.3634C12.952 7.3634 13.2573 7.66872 13.2573 8.04534V12.8416C13.2573 13.2182 12.952 13.5236 12.5754 13.5236C12.1987 13.5236 11.8934 13.2182 11.8934 12.8416V8.04534C11.8934 7.66872 12.1987 7.3634 12.5754 7.3634Z" fill="#121212" />
    <path fill-rule="evenodd" clip-rule="evenodd" d="M18.9712 7.3634C19.3479 7.3634 19.6532 7.66872 19.6532 8.04534V12.8416C19.6532 13.2182 19.3479 13.5236 18.9712 13.5236C18.5946 13.5236 18.2893 13.2182 18.2893 12.8416V8.04534C18.2893 7.66872 18.5946 7.3634 18.9712 7.3634Z" fill="#121212" />
</svg>