<svg width="18" height="18" viewBox="0 0 18 18" fill="none" xmlns="http://www.w3.org/2000/svg">
<path fill-rule="evenodd" clip-rule="evenodd" d="M7.1 3C7.1 2.72386 6.87614 2.5 6.6 2.5C6.32386 2.5 6.1 2.72386 6.1 3V3.5H5.4C3.78976 3.5 2.5 4.82696 2.5 6.44444V8V12.5556C2.5 14.173 3.78976 15.5 5.4 15.5H12.6C14.2102 15.5 15.5 14.173 15.5 12.5556V8V6.44444C15.5 4.82696 14.2102 3.5 12.6 3.5H11.9V3C11.9 2.72386 11.6761 2.5 11.4 2.5C11.1239 2.5 10.9 2.72386 10.9 3V3.5H7.1V3ZM6.1 4.5V5.5C6.1 5.77614 6.32386 6 6.6 6C6.87614 6 7.1 5.77614 7.1 5.5V4.5H10.9V5.5C10.9 5.77614 11.1239 6 11.4 6C11.6761 6 11.9 5.77614 11.9 5.5V4.5H12.6C13.6407 4.5 14.5 5.36187 14.5 6.44444V7.5H3.5V6.44444C3.5 5.36187 4.35927 4.5 5.4 4.5H6.1ZM3.5 8.5V12.5556C3.5 13.6381 4.35927 14.5 5.4 14.5H12.6C13.6407 14.5 14.5 13.6381 14.5 12.5556V8.5H3.5Z" fill="#BDBFC7"/>
</svg>
