<svg width="25" height="25" viewBox="0 0 25 25" fill="none" xmlns="http://www.w3.org/2000/svg">
    <path fill-rule="evenodd" clip-rule="evenodd" d="M2.17077 3.82936C2.35703 3.4941 2.77981 3.3733 3.11507 3.55956L9.20777 6.94439L9.46046 6.94439H9.72227L9.73217 6.94446C14.9019 6.94681 19.0675 7.01946 22.5796 9.12669C22.7887 9.25219 22.9167 9.47824 22.9167 9.72217V13.1944V15.9722C22.9167 16.2044 22.8007 16.4212 22.6075 16.55L20.5241 17.9389C20.4101 18.0149 20.276 18.0555 20.1389 18.0555H15.5045C14.7243 19.6978 13.0503 20.8333 11.1112 20.8333C9.17199 20.8333 7.49803 19.6978 6.71784 18.0555H2.77782C2.39429 18.0555 2.08338 17.7446 2.08338 17.3611C2.08338 16.9775 2.39429 16.6666 2.77782 16.6666H6.29927C6.26683 16.4398 6.25005 16.208 6.25005 15.9722C6.25005 13.2875 8.42644 11.1111 11.1112 11.1111C11.4252 11.1111 11.7323 11.1408 12.0298 11.1977C12.312 11.2517 12.5 11.5093 12.5 11.7966C12.5 12.2647 12.011 12.5851 11.5465 12.527C11.4039 12.5091 11.2586 12.4999 11.1112 12.4999C9.1935 12.4999 7.63893 14.0545 7.63893 15.9722C7.63893 17.8898 9.1935 19.4444 11.1112 19.4444C13.0288 19.4444 14.5834 17.8898 14.5834 15.9722C14.5834 15.8247 14.5742 15.6794 14.5564 15.5368C14.4983 15.0723 14.8186 14.5833 15.2867 14.5833C15.574 14.5833 15.8316 14.7714 15.8856 15.0535C15.9425 15.351 15.9723 15.6581 15.9723 15.9722C15.9723 16.208 15.9555 16.4398 15.923 16.6666H19.9287L21.5278 15.6005V13.8888H19.4445C19.061 13.8888 18.75 13.5779 18.75 13.1944C18.75 12.8109 19.061 12.4999 19.4445 12.4999H21.5278V11.1111H16.6667C16.2832 11.1111 15.9723 10.8001 15.9723 10.4166C15.9723 10.0331 16.2832 9.72217 16.6667 9.72217H20.725C17.6747 8.34885 14.0054 8.33328 9.02782 8.33328H2.77782C2.39429 8.33328 2.08338 8.02237 2.08338 7.63884C2.08338 7.25531 2.39429 6.94439 2.77782 6.94439H6.34787L2.44057 4.77367C2.1053 4.58741 1.98451 4.16463 2.17077 3.82936ZM11.1112 17.3611C11.8782 17.3611 12.5 16.7392 12.5 15.9722C12.5 15.2051 11.8782 14.5833 11.1112 14.5833C10.3441 14.5833 9.72227 15.2051 9.72227 15.9722C9.72227 16.7392 10.3441 17.3611 11.1112 17.3611Z" fill="#121212" />
</svg>