<svg width="18" height="18" viewBox="0 0 18 18" fill="none" xmlns="http://www.w3.org/2000/svg">
    <path fill-rule="evenodd" clip-rule="evenodd" d="M2.64849 4.12297C2.53142 3.26449 3.19874 2.5 4.06517 2.5C5.71009 2.5 7.10213 3.7151 7.32438 5.34493L8.57279 14.5H5.37288C4.62277 14.5 3.98798 13.9459 3.88663 13.2027L2.64849 4.12297Z" fill="#121212" />
    <path fill-rule="evenodd" clip-rule="evenodd" d="M7.75461 8.5H10.9999C12.9329 8.5 14.4999 10.067 14.4999 12V13C14.4999 13.8284 13.8283 14.5 12.9999 14.5H8.57279L7.75461 8.5Z" fill="#121212" />
    <path fill-rule="evenodd" clip-rule="evenodd" d="M15.358 3.02595C15.5508 3.22367 15.5468 3.54023 15.3491 3.733L12.2721 6.733C12.0779 6.92233 11.7682 6.92233 11.574 6.733L9.65095 4.858C9.45323 4.66523 9.44923 4.34867 9.642 4.15095C9.83478 3.95323 10.1513 3.94923 10.3491 4.142L11.9231 5.67668L14.651 3.017C14.8487 2.82423 15.1652 2.82823 15.358 3.02595Z" fill="#121212" />
</svg>