<svg xmlns="http://www.w3.org/2000/svg" width="30" height="18" viewBox="0 0 30 18" fill="none">
    <path fill-rule="evenodd" clip-rule="evenodd" d="M2.64812 4.12297C2.53106 3.26449 3.19837 2.5 4.0648 2.5C5.70972 2.5 7.10176 3.7151 7.32401 5.34493L8.57243 14.5H5.37251C4.6224 14.5 3.98761 13.9459 3.88626 13.2027L2.64812 4.12297Z" fill="#121212"/>
    <path fill-rule="evenodd" clip-rule="evenodd" d="M7.75425 8.5H10.9995C12.9325 8.5 14.4995 10.067 14.4995 12V13C14.4995 13.8284 13.8279 14.5 12.9995 14.5H8.57243L7.75425 8.5Z" fill="#121212"/>
    <path fill-rule="evenodd" clip-rule="evenodd" d="M22 3C18.6863 3 16 5.68629 16 9C16 12.3137 18.6863 15 22 15C25.3137 15 28 12.3137 28 9C28 5.68629 25.3137 3 22 3ZM24.9252 7.858C25.1229 7.66523 25.1269 7.34867 24.9342 7.15095C24.7414 6.95323 24.4248 6.94922 24.2271 7.142L21.4992 9.80168L19.9252 8.267C19.7275 8.07422 19.4109 8.07823 19.2182 8.27595C19.0254 8.47367 19.0294 8.79023 19.2271 8.983L21.1502 10.858C21.3444 11.0473 21.6541 11.0473 21.8483 10.858L24.9252 7.858Z" fill="#121212"/>
</svg>