<svg width="18" height="18" viewBox="0 0 18 18" fill="none" xmlns="http://www.w3.org/2000/svg">
    <path fill-rule="evenodd" clip-rule="evenodd" d="M5.06517 3.5C4.80472 3.5 4.60413 3.7298 4.63932 3.98786L5.87746 13.0676C5.91124 13.3153 6.12284 13.5 6.37288 13.5H8.42718L7.33354 5.48005C7.17886 4.3457 6.21002 3.5 5.06517 3.5ZM3.64849 4.12297C3.53142 3.26449 4.19874 2.5 5.06517 2.5C6.71009 2.5 8.10213 3.7151 8.32438 5.34493L9.57279 14.5H6.37288C5.62277 14.5 4.98798 13.9459 4.88663 13.2027L3.64849 4.12297Z" fill="#BDBFC7" />
    <path fill-rule="evenodd" clip-rule="evenodd" d="M8.5 8.5H12C13.933 8.5 15.5 10.067 15.5 12V13C15.5 13.8284 14.8284 14.5 14 14.5H9V13.5H14C14.2761 13.5 14.5 13.2761 14.5 13V12C14.5 10.6193 13.3807 9.5 12 9.5H8.5V8.5Z" fill="#BDBFC7" />
    <path fill-rule="evenodd" clip-rule="evenodd" d="M11.1464 3.14645C11.3417 2.95118 11.6583 2.95118 11.8536 3.14645L13 4.29289L14.1464 3.14645C14.3417 2.95118 14.6583 2.95118 14.8536 3.14645C15.0488 3.34171 15.0488 3.65829 14.8536 3.85355L13.7071 5L14.8536 6.14645C15.0488 6.34171 15.0488 6.65829 14.8536 6.85355C14.6583 7.04882 14.3417 7.04882 14.1464 6.85355L13 5.70711L11.8536 6.85355C11.6583 7.04882 11.3417 7.04882 11.1464 6.85355C10.9512 6.65829 10.9512 6.34171 11.1464 6.14645L12.2929 5L11.1464 3.85355C10.9512 3.65829 10.9512 3.34171 11.1464 3.14645Z" fill="#BDBFC7" />
</svg>