<svg width="25" height="25" viewBox="0 0 25 25" fill="none" xmlns="http://www.w3.org/2000/svg">
    <path fill-rule="evenodd" clip-rule="evenodd" d="M18.0559 2.7778H11.1114C10.0833 2.7778 9.18556 3.33641 8.70527 4.16669H7.18186C7.75385 2.54837 9.29724 1.38892 11.1114 1.38892H18.0559C20.3571 1.38892 22.2225 3.2544 22.2225 5.55558V15.2778C22.2225 17.092 21.0631 18.6354 19.4448 19.2074V17.684C20.275 17.2037 20.8337 16.306 20.8337 15.2778V5.55558C20.8337 4.02146 19.59 2.7778 18.0559 2.7778ZM6.9445 6.94447H13.8889C15.4231 6.94447 16.6667 8.18812 16.6667 9.72225V19.4445C16.6667 20.9786 15.4231 22.2222 13.8889 22.2222H6.9445C5.41037 22.2222 4.16672 20.9786 4.16672 19.4445V9.72225C4.16672 8.18812 5.41037 6.94447 6.9445 6.94447ZM2.77783 9.72225C2.77783 7.42106 4.64331 5.55558 6.9445 5.55558H13.8889C16.1901 5.55558 18.0556 7.42106 18.0556 9.72225V19.4445C18.0556 21.7457 16.1901 23.6111 13.8889 23.6111H6.9445C4.64331 23.6111 2.77783 21.7457 2.77783 19.4445V9.72225Z" fill="#121212" />
</svg>