<svg width="14" height="15" viewBox="0 0 14 15" fill="none" xmlns="http://www.w3.org/2000/svg">
    <path fill-rule="evenodd" clip-rule="evenodd" d="M11.1638 3.88604C11.3157 3.73417 11.3157 3.48794 11.1638 3.33607C11.0119 3.1842 10.7657 3.1842 10.6138 3.33607L6.99995 6.94997L3.38604 3.33607C3.23417 3.1842 2.98794 3.1842 2.83607 3.33607C2.6842 3.48794 2.6842 3.73417 2.83607 3.88604L6.44997 7.49995L2.83607 11.1138C2.6842 11.2657 2.6842 11.5119 2.83607 11.6638C2.98794 11.8157 3.23417 11.8157 3.38604 11.6638L6.99995 8.04992L10.6138 11.6638C10.7657 11.8157 11.0119 11.8157 11.1638 11.6638C11.3157 11.5119 11.3157 11.2657 11.1638 11.1138L7.54992 7.49995L11.1638 3.88604Z" fill="#FAFAFA" />
</svg>