<svg xmlns="http://www.w3.org/2000/svg" width="16" height="16" viewBox="0 0 16 16" fill="none">
    <path fill-rule="evenodd" clip-rule="evenodd" d="M0.5 7.5H8.5V15.5H3C1.61929 15.5 0.5 14.3807 0.5 13V7.5ZM1.5 8.5V13C1.5 13.8284 2.17157 14.5 3 14.5H7.5V8.5H1.5Z" fill="#8C909C"/>
    <path fill-rule="evenodd" clip-rule="evenodd" d="M0.5 3C0.5 1.61929 1.61929 0.5 3 0.5H6C7.38071 0.5 8.5 1.61929 8.5 3V8.5H0.5V3ZM3 1.5C2.17157 1.5 1.5 2.17157 1.5 3V7.5H7.5V3C7.5 2.17157 6.82843 1.5 6 1.5H3Z" fill="#8C909C"/>
    <path fill-rule="evenodd" clip-rule="evenodd" d="M13 7.5C14.3807 7.5 15.5 8.61929 15.5 10L15.5 13C15.5 14.3807 14.3807 15.5 13 15.5L7.5 15.5L7.5 7.5L13 7.5ZM14.5 10C14.5 9.17157 13.8284 8.5 13 8.5L8.5 8.5L8.5 14.5L13 14.5C13.8284 14.5 14.5 13.8284 14.5 13L14.5 10Z" fill="#8C909C"/>
    <path fill-rule="evenodd" clip-rule="evenodd" d="M8.35355 7.64645C8.54882 7.84171 8.54882 8.15829 8.35355 8.35355L2.35355 14.3536C2.15829 14.5488 1.84171 14.5488 1.64645 14.3536C1.45118 14.1583 1.45118 13.8417 1.64645 13.6464L7.64645 7.64645C7.84171 7.45118 8.15829 7.45118 8.35355 7.64645Z" fill="#8C909C"/>
    <path fill-rule="evenodd" clip-rule="evenodd" d="M8.35355 11.6464C8.54882 11.8417 8.54882 12.1583 8.35355 12.3536L5.35355 15.3536C5.15829 15.5488 4.84171 15.5488 4.64645 15.3536C4.45118 15.1583 4.45118 14.8417 4.64645 14.6464L7.64645 11.6464C7.84171 11.4512 8.15829 11.4512 8.35355 11.6464Z" fill="#8C909C"/>
    <path fill-rule="evenodd" clip-rule="evenodd" d="M5.35355 7.64645C5.54882 7.84171 5.54882 8.15829 5.35355 8.35355L1.35355 12.3536C1.15829 12.5488 0.841709 12.5488 0.646447 12.3536C0.451184 12.1583 0.451184 11.8417 0.646447 11.6464L4.64645 7.64645C4.84171 7.45118 5.15829 7.45118 5.35355 7.64645Z" fill="#8C909C"/>
</svg>