<svg width="18" height="18" viewBox="0 0 18 18" fill="none" xmlns="http://www.w3.org/2000/svg">
    <path d="M4.41421 11.9142L6.41421 13.9142C6.78929 14.2893 7.29799 14.5 7.82843 14.5H8.17157C8.70201 14.5 9.21071 14.2893 9.58579 13.9142L14.0858 9.41421C14.8668 8.63316 14.8668 7.36684 14.0858 6.58579L11.9142 4.41421C11.1332 3.63317 9.86683 3.63317 9.08579 4.41421L4.41421 9.08579C3.63317 9.86684 3.63316 11.1332 4.41421 11.9142Z" stroke="#BDBFC7" stroke-linecap="round" stroke-linejoin="round" />
    <path d="M8 14.5H15" stroke="#BDBFC7" stroke-linecap="round" stroke-linejoin="round" />
    <path d="M10.5 13L5.5 8L9.08579 4.41421C9.86684 3.63317 11.1332 3.63316 11.9142 4.41421L14.0858 6.58579C14.8668 7.36684 14.8668 8.63316 14.0858 9.41421L10.5 13Z" fill="#BDBFC7" />
</svg>