<svg xmlns="http://www.w3.org/2000/svg" width="30" height="30" viewBox="0 0 30 30" fill="none">
    <path fill-rule="evenodd" clip-rule="evenodd" d="M7.53033 6.21967C7.23744 5.92678 6.76256 5.92678 6.46967 6.21967C6.17678 6.51256 6.17678 6.98744 6.46967 7.28033L22.9697 23.7803C23.2626 24.0732 23.7374 24.0732 24.0303 23.7803C24.3232 23.4874 24.3232 23.0126 24.0303 22.7197L7.53033 6.21967ZM22.0512 17.6852C21.7284 17.9709 21.6934 18.4736 21.9982 18.7783C22.2524 19.0325 22.6576 19.0591 22.9297 18.8242C23.0899 18.6859 23.2474 18.5429 23.4022 18.3953C25.1283 16.7476 25.9047 15.1044 25.9368 15.0352C25.9785 14.9457 26 14.8488 26 14.7509C26 14.6529 25.9785 14.556 25.9368 14.4665C25.9047 14.3974 25.1283 12.7532 23.4022 11.1056C21.1023 8.91025 18.1973 7.75 15 7.75C14.2007 7.75 13.4196 7.82252 12.6617 7.96559C12.1191 8.06802 11.9478 8.72799 12.3383 9.11841C12.5138 9.29392 12.7662 9.3662 13.0105 9.32246C13.6521 9.20762 14.3155 9.15 15 9.15C17.8215 9.15 20.2864 10.1291 22.3269 12.0594C23.1658 12.8538 23.8797 13.7601 24.4463 14.75C24.1425 15.2912 23.3703 16.5176 22.0512 17.6852ZM7.07272 10.6744C7.34364 10.4405 7.7471 10.467 8.00017 10.72C8.30305 11.0229 8.26914 11.5222 7.94885 11.8066C7.85608 11.889 7.76416 11.9732 7.67308 12.0594C6.8357 12.854 6.12338 13.7603 5.55833 14.75C6.12353 15.7396 6.83583 16.6459 7.67308 17.4406C9.71358 19.3709 12.1785 20.35 15 20.35C15.7034 20.35 16.3638 20.2873 16.9827 20.1748C17.2284 20.1301 17.4826 20.2025 17.6592 20.379C18.0508 20.7706 17.8789 21.4325 17.3347 21.5351C16.578 21.6777 15.7981 21.75 15 21.75C11.8027 21.75 8.89775 20.5898 6.59783 18.3953C4.87174 16.7476 4.09532 15.1044 4.06324 15.0352C4.02154 14.9457 4 14.8488 4 14.7509C4 14.6529 4.02154 14.556 4.06324 14.4665C4.09166 14.4 4.87174 12.7532 6.59783 11.1056C6.75339 10.9571 6.91172 10.8134 7.07272 10.6744ZM10.6148 15.0943C10.552 14.3655 11.4092 14.129 11.9264 14.6463C12.0165 14.7364 12.0658 14.8582 12.077 14.9852C12.1023 15.2712 12.1736 15.5534 12.29 15.8215C12.512 16.3331 12.8879 16.7704 13.3703 17.0781C13.7153 17.2981 14.1036 17.4448 14.509 17.5105C14.7113 17.5433 14.9053 17.6251 15.0502 17.77C15.51 18.2299 15.2756 18.9875 14.6275 18.9349C14.4649 18.9217 14.3027 18.8999 14.1416 18.8693C13.2881 18.7072 12.5041 18.3072 11.8887 17.7198C11.2734 17.1325 10.8543 16.3841 10.6845 15.5694C10.6517 15.4119 10.6285 15.2533 10.6148 15.0943ZM15.491 11.9895C15.2887 11.9567 15.0947 11.8749 14.9498 11.73L14.6861 11.4663C14.3421 11.1222 14.5135 10.55 15 10.55C16.1666 10.5512 17.285 10.994 18.1099 11.7814C18.9348 12.5688 19.3988 13.6364 19.4 14.75C19.4 15.3239 18.7232 15.5033 18.3173 15.0975L18.0736 14.8537C17.9835 14.7636 17.9342 14.6418 17.923 14.5148C17.8814 14.044 17.7155 13.5894 17.439 13.1944C17.1167 12.7339 16.6585 12.3751 16.1225 12.1631C15.9185 12.0824 15.7066 12.0244 15.491 11.9895Z" fill="#BDBFC7"/>
</svg>