<svg xmlns="http://www.w3.org/2000/svg" width="30" height="31" viewBox="0 0 30 31" fill="none">
    <path d="M25.9368 15.2165C25.9047 15.1474 25.1283 13.5032 23.4022 11.8556C21.1023 9.66025 18.1973 8.5 15 8.5C11.8027 8.5 8.89775 9.66025 6.59783 11.8556C4.87174 13.5032 4.09166 15.15 4.06324 15.2165C4.02154 15.306 4 15.4029 4 15.5009C4 15.5988 4.02154 15.6957 4.06324 15.7852C4.09532 15.8544 4.87174 17.4976 6.59783 19.1453C8.89775 21.3398 11.8027 22.5 15 22.5C18.1973 22.5 21.1023 21.3398 23.4022 19.1453C25.1283 17.4976 25.9047 15.8544 25.9368 15.7852C25.9785 15.6957 26 15.5988 26 15.5009C26 15.4029 25.9785 15.306 25.9368 15.2165ZM15 21.1C12.1785 21.1 9.71358 20.1209 7.67308 18.1906C6.83583 17.3959 6.12353 16.4896 5.55833 15.5C6.12338 14.5103 6.8357 13.604 7.67308 12.8094C9.71358 10.8791 12.1785 9.9 15 9.9C17.8215 9.9 20.2864 10.8791 22.3269 12.8094C23.1658 13.6038 23.8797 14.5101 24.4463 15.5C23.7853 16.6777 20.9061 21.1 15 21.1ZM15 11.3C14.1298 11.3 13.2791 11.5463 12.5555 12.0078C11.8319 12.4693 11.268 13.1253 10.9349 13.8927C10.6019 14.6602 10.5148 15.5047 10.6845 16.3194C10.8543 17.1341 11.2734 17.8825 11.8887 18.4698C12.5041 19.0572 13.2881 19.4572 14.1416 19.6193C14.9951 19.7814 15.8798 19.6982 16.6838 19.3803C17.4878 19.0624 18.175 18.5241 18.6585 17.8334C19.1419 17.1427 19.4 16.3307 19.4 15.5C19.3988 14.3864 18.9348 13.3188 18.1099 12.5314C17.285 11.744 16.1666 11.3012 15 11.3ZM15 18.3C14.4198 18.3 13.8527 18.1358 13.3703 17.8281C12.8879 17.5204 12.512 17.0831 12.29 16.5715C12.0679 16.0599 12.0098 15.4969 12.123 14.9537C12.2362 14.4106 12.5156 13.9117 12.9258 13.5201C13.3361 13.1285 13.8587 12.8618 14.4277 12.7538C14.9967 12.6458 15.5865 12.7012 16.1225 12.9131C16.6585 13.1251 17.1167 13.4839 17.439 13.9444C17.7613 14.4049 17.9333 14.9462 17.9333 15.5C17.9333 16.2426 17.6243 16.9548 17.0742 17.4799C16.5241 18.005 15.778 18.3 15 18.3Z" fill="#BDBFC7"/>
</svg>