<svg width="25" height="26" viewBox="0 0 25 26" fill="none" xmlns="http://www.w3.org/2000/svg">
    <path fill-rule="evenodd" clip-rule="evenodd" d="M16.6667 6.58335C15.5161 6.58335 14.5833 7.51609 14.5833 8.66668C14.5833 9.81727 15.5161 10.75 16.6667 10.75C17.8173 10.75 18.75 9.81727 18.75 8.66668C18.75 7.51609 17.8173 6.58335 16.6667 6.58335ZM13.1945 8.66668C13.1945 6.74903 14.749 5.19446 16.6667 5.19446C18.5843 5.19446 20.1389 6.74903 20.1389 8.66668C20.1389 10.5843 18.5843 12.1389 16.6667 12.1389C14.749 12.1389 13.1945 10.5843 13.1945 8.66668Z" fill="#121212" />
    <path fill-rule="evenodd" clip-rule="evenodd" d="M2.08337 8.66673C2.08337 8.2832 2.39429 7.97229 2.77782 7.97229H13.8889C14.2725 7.97229 14.5834 8.2832 14.5834 8.66673C14.5834 9.05027 14.2725 9.36118 13.8889 9.36118H2.77782C2.39429 9.36118 2.08337 9.05027 2.08337 8.66673Z" fill="#121212" />
    <path fill-rule="evenodd" clip-rule="evenodd" d="M18.75 8.66673C18.75 8.2832 19.0609 7.97229 19.4444 7.97229H22.2222C22.6058 7.97229 22.9167 8.2832 22.9167 8.66673C22.9167 9.05027 22.6058 9.36118 22.2222 9.36118H19.4444C19.0609 9.36118 18.75 9.05027 18.75 8.66673Z" fill="#121212" />
    <path fill-rule="evenodd" clip-rule="evenodd" d="M8.33331 14.9167C7.18271 14.9167 6.24997 15.8495 6.24997 17.0001C6.24997 18.1506 7.18271 19.0834 8.33331 19.0834C9.4839 19.0834 10.4166 18.1506 10.4166 17.0001C10.4166 15.8495 9.4839 14.9167 8.33331 14.9167ZM4.86108 17.0001C4.86108 15.0824 6.41565 13.5278 8.33331 13.5278C10.251 13.5278 11.8055 15.0824 11.8055 17.0001C11.8055 18.9177 10.251 20.4723 8.33331 20.4723C6.41565 20.4723 4.86108 18.9177 4.86108 17.0001Z" fill="#121212" />
    <path fill-rule="evenodd" clip-rule="evenodd" d="M10.4166 17C10.4166 16.6165 10.7275 16.3056 11.1111 16.3056H22.2222C22.6057 16.3056 22.9166 16.6165 22.9166 17C22.9166 17.3836 22.6057 17.6945 22.2222 17.6945H11.1111C10.7275 17.6945 10.4166 17.3836 10.4166 17Z" fill="#121212" />
    <path fill-rule="evenodd" clip-rule="evenodd" d="M2.08337 17C2.08337 16.6165 2.39429 16.3056 2.77782 16.3056H5.5556C5.93913 16.3056 6.25004 16.6165 6.25004 17C6.25004 17.3836 5.93913 17.6945 5.5556 17.6945H2.77782C2.39429 17.6945 2.08337 17.3836 2.08337 17Z" fill="#121212" />
</svg>