<svg xmlns="http://www.w3.org/2000/svg" width="19" height="19" viewBox="0 0 19 19" fill="none">
    <path fill-rule="evenodd" clip-rule="evenodd" d="M3.87015 3.69447C3.8262 3.69447 3.78233 3.71213 3.74868 3.74632C3.71475 3.78079 3.69423 3.82928 3.69423 3.88156V5.01522C3.69423 5.01519 3.69423 5.01526 3.69423 5.01522C3.69427 5.06745 3.71479 5.116 3.7487 5.15044L8.26225 9.73558C8.26224 9.73556 8.26227 9.7356 8.26225 9.73558C8.49224 9.96918 8.62008 10.2843 8.62015 10.6112V14.7611C8.62015 14.8049 8.63463 14.8465 8.65985 14.8793C8.68496 14.912 8.71888 14.9338 8.75524 14.943L10.1624 15.3004C10.1872 15.3067 10.2133 15.3073 10.2383 15.3019C10.2633 15.2965 10.2873 15.2853 10.3085 15.2685C10.3298 15.2517 10.3476 15.2296 10.3602 15.2035C10.3727 15.1774 10.3794 15.1483 10.3794 15.1185V10.6113C10.3795 10.2844 10.5073 9.96923 10.7373 9.73564C10.7372 9.73565 10.7373 9.73562 10.7373 9.73564L15.2508 5.1505C15.2847 5.11606 15.3053 5.06756 15.3053 5.01533C15.3053 5.0153 15.3053 5.01537 15.3053 5.01533V3.88156C15.3053 3.82928 15.2848 3.78079 15.2509 3.74632C15.2172 3.71213 15.1734 3.69447 15.1294 3.69447H3.87015ZM2.99644 3.00583C3.22672 2.77189 3.54084 2.63892 3.87015 2.63892H15.1294C15.4587 2.63892 15.7728 2.77189 16.0031 3.00583C16.2331 3.23948 16.3609 3.55465 16.3609 3.88156V5.01533C16.3608 5.34219 16.233 5.65739 16.0031 5.89099C16.003 5.89101 16.0031 5.89097 16.0031 5.89099L11.4895 10.4761C11.4556 10.5106 11.435 10.5591 11.435 10.6113C11.435 10.6113 11.435 10.6113 11.435 10.6113V15.1185C11.435 15.3061 11.3929 15.4914 11.3116 15.6606C11.2303 15.8299 11.1117 15.9788 10.9643 16.0956C10.8168 16.2125 10.6445 16.2942 10.4602 16.3338C10.2759 16.3735 10.0852 16.3699 9.90257 16.3235C9.90249 16.3235 9.90266 16.3235 9.90257 16.3235L8.49517 15.966C8.22718 15.8978 7.99071 15.741 7.82279 15.5224C7.65498 15.304 7.5646 15.036 7.5646 14.7611V10.6114C7.5646 10.6114 7.5646 10.6114 7.5646 10.6114C7.56456 10.5592 7.54404 10.5106 7.51013 10.4762L2.99657 5.89105C2.99655 5.89103 2.99659 5.89107 2.99657 5.89105C2.76658 5.65745 2.63874 5.3423 2.63867 5.01544V3.88156C2.63867 3.55465 2.76643 3.23948 2.99644 3.00583Z" fill="#121212"/>
</svg>