<svg xmlns="http://www.w3.org/2000/svg" width="20" height="20" viewBox="0 0 20 20" fill="none">
    <path fill-rule="evenodd" clip-rule="evenodd" d="M14.8615 7.63897H5.13932C4.06544 7.63897 3.19488 8.50953 3.19488 9.58342V13.7501C3.19488 14.824 4.06544 15.6945 5.13932 15.6945H14.8615C15.9354 15.6945 16.806 14.824 16.806 13.7501V9.58341C16.806 8.50953 15.9354 7.63897 14.8615 7.63897ZM5.13932 6.66675C3.52849 6.66675 2.22266 7.97258 2.22266 9.58342V13.7501C2.22266 15.3609 3.52849 16.6667 5.13932 16.6667H14.8615C16.4724 16.6667 17.7782 15.3609 17.7782 13.7501V9.58341C17.7782 7.97258 16.4724 6.66675 14.8615 6.66675H5.13932Z" fill="#007BFB"/>
    <path fill-rule="evenodd" clip-rule="evenodd" d="M9.02799 4.30547H10.9724C12.0463 4.30547 12.9169 5.17603 12.9169 6.24992V7.22214H13.8891V6.24992C13.8891 4.63909 12.5833 3.33325 10.9724 3.33325H9.02799C7.41716 3.33325 6.11133 4.63909 6.11133 6.24992V7.22214H7.08355V6.24992C7.08355 5.17603 7.95411 4.30547 9.02799 4.30547Z" fill="#007BFB"/>
    <path fill-rule="evenodd" clip-rule="evenodd" d="M5.55556 7.22217C5.86238 7.22217 6.11111 7.4709 6.11111 7.77772L6.11111 15.5555C6.11111 15.8623 5.86238 16.1111 5.55556 16.1111C5.24873 16.1111 5 15.8623 5 15.5555L5 7.77772C5 7.4709 5.24873 7.22217 5.55556 7.22217Z" fill="#007BFB"/>
    <path fill-rule="evenodd" clip-rule="evenodd" d="M14.4442 7.22217C14.7511 7.22217 14.9998 7.4709 14.9998 7.77772V15.5555C14.9998 15.8623 14.7511 16.1111 14.4442 16.1111C14.1374 16.1111 13.8887 15.8623 13.8887 15.5555V7.77772C13.8887 7.4709 14.1374 7.22217 14.4442 7.22217Z" fill="#007BFB"/>
</svg>