<svg width="19" height="19" viewBox="0 0 19 19" fill="none" xmlns="http://www.w3.org/2000/svg">
    <path fill-rule="evenodd" clip-rule="evenodd" d="M8.72791 3.95676C8.32952 3.67009 7.87979 3.45367 7.39862 3.32034C6.57161 3.09119 5.69242 3.11881 4.8821 3.3994C4.07179 3.67999 3.3702 4.19975 2.87394 4.88711C2.37768 5.57447 2.11117 6.39563 2.11108 7.23751C2.11108 9.81779 3.99987 11.9719 5.69931 13.4077C6.45059 14.0367 7.24762 14.6112 8.08408 15.1267C8.43491 15.3437 8.79285 15.5495 9.15731 15.7437L9.17486 15.7528L9.17948 15.7555L9.18133 15.7564C9.27961 15.8071 9.38903 15.8334 9.50009 15.8333C9.61114 15.8331 9.72048 15.8064 9.81862 15.7555H9.82047L9.82509 15.7528L9.84263 15.7437C11.0744 15.0839 12.2333 14.3011 13.3006 13.4077C15.001 11.9719 16.8889 9.81779 16.8889 7.23751C16.8888 6.39563 16.6223 5.57447 16.126 4.88711C15.6297 4.19975 14.9282 3.67999 14.1178 3.3994C13.3075 3.11881 12.4283 3.09119 11.6013 3.32034C11.1202 3.45367 10.6704 3.67009 10.272 3.95676C9.9857 4.1628 9.72588 4.40512 9.49997 4.67894C9.27407 4.40512 9.01425 4.1628 8.72791 3.95676ZM15.8333 7.23751C15.8332 6.61912 15.6376 6.01385 15.2702 5.50499C14.9026 4.99578 14.3802 4.60729 13.7725 4.39685C13.1645 4.18635 12.5041 4.16552 11.8832 4.33757C11.2624 4.50957 10.715 4.86488 10.3142 5.35068L9.49997 6.33763L8.68574 5.35068C8.28496 4.86488 7.73752 4.50957 7.11676 4.33757C6.49584 4.16552 5.8354 4.18635 5.22749 4.39685C4.61978 4.60729 4.09739 4.99578 3.72976 5.50499C3.36237 6.01385 3.16672 6.61912 3.16664 7.23751M15.8333 7.23761C15.8333 9.31487 14.2849 11.1947 12.6215 12.5997C11.6551 13.4083 10.6095 14.1216 9.49962 14.7291C9.2082 14.5702 8.92132 14.4034 8.63933 14.229L8.63792 14.2281C7.84538 13.7397 7.09035 13.1955 6.37878 12.5999C4.71581 11.1946 3.16669 9.31481 3.16664 7.23761" fill="#121212" />
</svg>