<svg width="18" height="18" viewBox="0 0 18 18" fill="none" xmlns="http://www.w3.org/2000/svg">
    <path fill-rule="evenodd" clip-rule="evenodd" d="M9 14C11.7614 14 14 11.7614 14 9C14 6.23858 11.7614 4 9 4C6.23858 4 4 6.23858 4 9C4 11.7614 6.23858 14 9 14ZM9 15C12.3137 15 15 12.3137 15 9C15 5.68629 12.3137 3 9 3C5.68629 3 3 5.68629 3 9C3 12.3137 5.68629 15 9 15ZM10 6C10 6.55228 9.55228 7 9 7C8.44772 7 8 6.55228 8 6C8 5.44772 8.44772 5 9 5C9.55228 5 10 5.44772 10 6ZM9.5 9C9.5 8.72386 9.27614 8.5 9 8.5C8.72386 8.5 8.5 8.72386 8.5 9V12C8.5 12.2761 8.72386 12.5 9 12.5C9.27614 12.5 9.5 12.2761 9.5 12V9Z" fill="#BDBFC7" />
</svg>