<svg width="18" height="18" viewBox="0 0 18 18" fill="none" xmlns="http://www.w3.org/2000/svg">
    <path fill-rule="evenodd" clip-rule="evenodd" d="M6.98588 2.9517C7.31512 2.62246 7.76166 2.4375 8.22727 2.4375C8.69288 2.4375 9.13942 2.62246 9.46865 2.9517C9.79789 3.28094 9.98285 3.72748 9.98285 4.19309C9.98285 4.6587 9.79789 5.10524 9.46865 5.43447C9.13942 5.76371 8.69288 5.94867 8.22727 5.94867C7.76166 5.94867 7.31512 5.76371 6.98588 5.43447C6.65664 5.10524 6.47168 4.6587 6.47168 4.19309C6.47168 3.72748 6.65664 3.28094 6.98588 2.9517ZM8.22727 3.5625C8.06002 3.5625 7.89963 3.62894 7.78137 3.74719C7.66312 3.86545 7.59668 4.02584 7.59668 4.19309C7.59668 4.36033 7.66312 4.52072 7.78137 4.63898C7.89963 4.75724 8.06002 4.82367 8.22727 4.82367C8.39451 4.82367 8.5549 4.75724 8.67316 4.63898C8.79142 4.52072 8.85785 4.36033 8.85785 4.19309C8.85785 4.02584 8.79142 3.86545 8.67316 3.74719C8.5549 3.62894 8.39451 3.5625 8.22727 3.5625Z" fill="#121212" />
    <path fill-rule="evenodd" clip-rule="evenodd" d="M8.22766 4.82422C8.53832 4.82422 8.79016 5.07606 8.79016 5.38672V7.21039H11.2104C11.521 7.21039 11.7729 7.46223 11.7729 7.77289C11.7729 8.08355 11.521 8.33539 11.2104 8.33539H8.79016V9.59656H10.6138C10.7847 9.59656 10.9463 9.67424 11.0531 9.80767L13.4392 12.7904C13.6333 13.033 13.594 13.3869 13.3514 13.581C13.1088 13.7751 12.7548 13.7358 12.5608 13.4932L10.3435 10.7216H8.22766C7.917 10.7216 7.66515 10.4697 7.66515 10.1591V5.38672C7.66515 5.07606 7.917 4.82422 8.22766 4.82422ZM6.36118 7.85594C6.48004 8.14296 6.34373 8.472 6.0567 8.59086C5.70988 8.73449 5.40123 8.95682 5.15514 9.24029C4.90904 9.52375 4.73226 9.86057 4.63877 10.2241C4.54527 10.5877 4.53763 10.968 4.61644 11.335C4.69524 11.702 4.85834 12.0457 5.09284 12.3388C5.32735 12.6319 5.62682 12.8665 5.96758 13.0239C6.30835 13.1814 6.68107 13.2574 7.05628 13.246C7.43149 13.2346 7.7989 13.1361 8.12947 12.9582C8.46004 12.7803 8.74471 12.528 8.96096 12.2212C9.13993 11.9673 9.49086 11.9065 9.74479 12.0855C9.99872 12.2644 10.0595 12.6154 9.88052 12.8693C9.56374 13.3187 9.14676 13.6884 8.66253 13.9489C8.17829 14.2094 7.64009 14.3538 7.09048 14.3705C6.54086 14.3872 5.99488 14.2758 5.49571 14.0452C4.99655 13.8146 4.55787 13.471 4.21437 13.0416C3.87086 12.6122 3.63195 12.1088 3.51651 11.5712C3.40107 11.0336 3.41227 10.4765 3.54922 9.94393C3.68618 9.41138 3.94513 8.91799 4.30561 8.50276C4.6661 8.08754 5.11823 7.76185 5.62626 7.55146C5.91328 7.4326 6.24232 7.56892 6.36118 7.85594Z" fill="#121212" />
</svg>