<svg width="25" height="26" viewBox="0 0 25 26" fill="none" xmlns="http://www.w3.org/2000/svg">
    <path fill-rule="evenodd" clip-rule="evenodd" d="M18.0556 7.6111H19.4445C21.7457 7.6111 23.6111 9.47658 23.6111 11.7778V20.1111C23.6111 22.4123 21.7457 24.2778 19.4445 24.2778H5.55558C3.2544 24.2778 1.38892 22.4123 1.38892 20.1111V11.7778C1.38892 9.47658 3.2544 7.6111 5.55558 7.6111H6.94447V6.22221C6.94447 3.92102 8.80995 2.05554 11.1111 2.05554H13.8889C16.1901 2.05554 18.0556 3.92102 18.0556 6.22221V7.6111ZM13.8889 3.44443H11.1111C9.57701 3.44443 8.33336 4.68808 8.33336 6.22221V7.6111H16.6667V6.22221C16.6667 4.68808 15.423 3.44443 13.8889 3.44443ZM5.55558 8.99999H19.4445C20.9786 8.99999 22.2222 10.2436 22.2222 11.7778V20.1111C22.2222 21.6452 20.9786 22.8889 19.4445 22.8889H5.55558C4.02146 22.8889 2.7778 21.6452 2.7778 20.1111V11.7778C2.7778 10.2436 4.02146 8.99999 5.55558 8.99999Z" fill="#121212" />
</svg>