<svg xmlns="http://www.w3.org/2000/svg" width="14" height="14" viewBox="0 0 14 14" fill="none">
    <path fill-rule="evenodd" clip-rule="evenodd" d="M9.56937 5.5225C10.6263 4.46553 10.6263 2.75186 9.56937 1.6949C8.51241 0.637933 6.79873 0.637933 5.74177 1.6949C4.68481 2.75186 4.68481 4.46553 5.74177 5.5225C6.79873 6.57946 8.51241 6.57946 9.56937 5.5225ZM10.2073 6.16043C11.6166 4.75115 11.6166 2.46625 10.2073 1.05696C8.79802 -0.352321 6.51312 -0.352321 5.10384 1.05696C3.69455 2.46625 3.69455 4.75115 5.10384 6.16043C6.51312 7.56971 8.79802 7.56971 10.2073 6.16043Z" fill="#121212"/>
    <path fill-rule="evenodd" clip-rule="evenodd" d="M0.318967 10.9449C0.142806 10.7687 0.142806 10.4831 0.318967 10.3069L5.10347 5.52242C5.27963 5.34626 5.56524 5.34626 5.7414 5.52242C5.91756 5.69858 5.91756 5.98419 5.7414 6.16035L0.9569 10.9449C0.78074 11.121 0.495127 11.121 0.318967 10.9449Z" fill="#121212"/>
    <path fill-rule="evenodd" clip-rule="evenodd" d="M1.276 9.3501C1.45216 9.17394 1.73777 9.17394 1.91393 9.3501L3.50877 10.9449C3.68493 11.1211 3.68493 11.4067 3.50877 11.5829C3.3326 11.759 3.04699 11.759 2.87083 11.5829L1.276 9.98803C1.09984 9.81187 1.09984 9.52626 1.276 9.3501Z" fill="#121212"/>
    <path fill-rule="evenodd" clip-rule="evenodd" d="M2.86975 7.75522C3.04591 7.57906 3.33152 7.57906 3.50768 7.75522L4.46458 8.71212C4.64074 8.88828 4.64074 9.17389 4.46458 9.35006C4.28842 9.52622 4.00281 9.52622 3.82665 9.35006L2.86975 8.39316C2.69359 8.21699 2.69359 7.93138 2.86975 7.75522Z" fill="#121212"/>
    <path d="M10.4157 7.43717C11.5617 7.43717 12.4907 6.50814 12.4907 5.36213C12.4907 5.06011 12.4262 4.77316 12.3102 4.51431C12.2684 4.42112 12.2486 4.31897 12.2584 4.21731C12.3006 3.77895 12.8002 3.52562 13.0153 3.90989C13.2558 4.33949 13.3929 4.8348 13.3929 5.36213C13.3929 6.85297 12.2971 8.08787 10.867 8.30536V10.1208H11.5324C11.7815 10.1208 11.9835 10.3228 11.9835 10.5719C11.9835 10.821 11.7815 11.023 11.5324 11.023H10.867V11.9816H12.2767C12.5258 11.9816 12.7278 12.1835 12.7278 12.4327C12.7278 12.6818 12.5258 12.8837 12.2767 12.8837H10.867V13.5489C10.867 13.798 10.6651 14 10.4159 14C10.1668 14 9.96484 13.798 9.96484 13.5489V7.96664C9.96487 7.9497 9.96505 7.93305 9.96535 7.91673C9.97022 7.65871 10.1576 7.43717 10.4157 7.43717Z" fill="#121212"/>
</svg>