<svg xmlns="http://www.w3.org/2000/svg" width="14" height="15" viewBox="0 0 14 15" fill="none">
    <path fill-rule="evenodd" clip-rule="evenodd" d="M10.2002 5.77431H3.86686C2.70093 5.77431 1.75575 6.71948 1.75575 7.88542V11.0521C1.75575 12.218 2.70093 13.1632 3.86686 13.1632H10.2002C11.3661 13.1632 12.3113 12.218 12.3113 11.0521V7.88542C12.3113 6.71948 11.3661 5.77431 10.2002 5.77431ZM3.86686 4.71875C2.11796 4.71875 0.700195 6.13651 0.700195 7.88542V11.0521C0.700195 12.801 2.11796 14.2188 3.86686 14.2188H10.2002C11.9491 14.2188 13.3669 12.801 13.3669 11.0521V7.88542C13.3669 6.13652 11.9491 4.71875 10.2002 4.71875H3.86686Z" fill="#8C909C"/>
    <path fill-rule="evenodd" clip-rule="evenodd" d="M9.14399 4.72222V3.66667C9.14399 2.50073 8.19881 1.55556 7.03288 1.55556C5.86694 1.55556 4.92177 2.50073 4.92177 3.66667V4.72222H9.14399ZM7.03288 0.5C5.28398 0.5 3.86621 1.91777 3.86621 3.66667V5.77778H10.1995V3.66667C10.1995 1.91777 8.78178 0.5 7.03288 0.5Z" fill="#8C909C"/>
    <path d="M8.08865 8.94618C8.08865 9.52915 7.61606 10.0017 7.03309 10.0017C6.45013 10.0017 5.97754 9.52915 5.97754 8.94618C5.97754 8.36321 6.45013 7.89062 7.03309 7.89062C7.61606 7.89062 8.08865 8.36321 8.08865 8.94618Z" fill="#8C909C"/>
    <path fill-rule="evenodd" clip-rule="evenodd" d="M7.03364 8.41406C7.32512 8.41406 7.56141 8.65036 7.56141 8.94184V11.053C7.56141 11.3444 7.32512 11.5807 7.03364 11.5807C6.74215 11.5807 6.50586 11.3444 6.50586 11.053V8.94184C6.50586 8.65036 6.74215 8.41406 7.03364 8.41406Z" fill="#8C909C"/>
</svg>