<svg width="65" height="35" viewBox="0 0 65 35" fill="none" xmlns="http://www.w3.org/2000/svg">
<g id="logo">
<path id="Vector" d="M33.6641 28.5703V5.23389H38.6239V28.5703H33.6641ZM44.5514 5.23389H53.1322C56.4936 5.23389 59.3123 6.3614 61.5883 8.61642C62.6684 9.70227 63.5255 10.9931 64.1104 12.4148C64.6952 13.8365 64.9963 15.3609 64.9963 16.9006C64.9963 18.4402 64.6952 19.9647 64.1104 21.3863C63.5255 22.808 62.6684 24.0989 61.5883 25.1847C59.3123 27.4397 56.4936 28.5672 53.1322 28.5672H44.5514V5.23389ZM53.1322 9.7419H49.5173V24.0808H53.1383C54.0527 24.0941 54.9598 23.9157 55.8025 23.5569C56.6452 23.198 57.4051 22.6665 58.0343 21.9959C58.6948 21.3325 59.2153 20.5404 59.5642 19.6678C59.913 18.7951 60.083 17.86 60.0638 16.919C60.0849 15.9798 59.9205 15.0458 59.5804 14.1715C59.2403 13.2971 58.7312 12.5001 58.083 11.8268C57.4482 11.1491 56.6792 10.6143 55.8262 10.2572C54.9732 9.90005 54.0552 9.72869 53.1322 9.75421V9.7419Z" fill="#121212"/>
<path id="Vector_2" d="M23.7477 19.2189C22.8687 18.157 21.7752 17.2973 20.5405 16.6974C20.3376 16.6051 20.1348 16.5221 19.9319 16.4483C20.5162 16.0964 21.0628 15.6841 21.5629 15.2183C23.0719 13.5729 23.9117 11.4131 23.915 9.16971C23.9144 7.75339 23.5681 6.35906 22.9068 5.11034C22.2454 3.86163 21.2895 2.79708 20.1236 2.01102C15.1759 -1.46992 7.53229 -0.264524 3.67091 4.33573C1.72957 6.64508 0.755861 9.61557 0.323776 12.5738L0.30552 12.706C-0.159908 16.269 -0.0932378 19.8825 0.503304 23.4256C1.04189 26.7681 2.39596 29.917 5.06758 32.0849C7.50186 34.0713 10.639 35 13.7428 35C17.4713 35 20.4025 34.0529 22.5366 32.1587C24.6707 30.2644 25.7539 27.8106 25.7864 24.797C25.7747 22.7537 25.0531 20.7793 23.7477 19.2189Z" fill="#007BFB"/>
</g>
</svg>
