<svg width="26" height="35" viewBox="0 0 26 35" fill="none" xmlns="http://www.w3.org/2000/svg">
    <path d="M23.2076 19.2189C22.3487 18.157 21.28 17.2973 20.0734 16.6974C19.8752 16.6051 19.6769 16.5221 19.4787 16.4483C20.0497 16.0964 20.5838 15.6841 21.0726 15.2183C22.5472 13.5729 23.368 11.4131 23.3712 9.16971C23.3706 7.75339 23.0322 6.35906 22.3859 5.11034C21.7396 3.86163 20.8054 2.79708 19.666 2.01102C14.8309 -1.46992 7.36101 -0.264524 3.58744 4.33573C1.69024 6.64508 0.738674 9.61557 0.316414 12.5738L0.298573 12.706C-0.156272 16.269 -0.0911176 19.8825 0.491859 23.4256C1.0182 26.7681 2.34148 29.917 4.95235 32.0849C7.33128 34.0713 10.3971 35 13.4303 35C17.074 35 19.9386 34.0529 22.0241 32.1587C24.1097 30.2644 25.1683 27.8106 25.2 24.797C25.1886 22.7537 24.4834 20.7793 23.2076 19.2189Z" fill="#121212" />
</svg>