<svg xmlns="http://www.w3.org/2000/svg" width="20" height="20" viewBox="0 0 20 20" fill="none">
    <path fill-rule="evenodd" clip-rule="evenodd" d="M14.8615 8.19439H5.13932C4.06544 8.19439 3.19488 9.06495 3.19488 10.1388V13.1944C3.19488 14.2683 4.06544 15.1388 5.13932 15.1388H14.8615C15.9354 15.1388 16.806 14.2683 16.806 13.1944V10.1388C16.806 9.06495 15.9354 8.19439 14.8615 8.19439ZM5.13932 7.22217C3.52849 7.22217 2.22266 8.528 2.22266 10.1388V13.1944C2.22266 14.8052 3.52849 16.1111 5.13932 16.1111H14.8615C16.4724 16.1111 17.7782 14.8052 17.7782 13.1944V10.1388C17.7782 8.528 16.4724 7.22217 14.8615 7.22217H5.13932Z" fill="#BDBFC7"/>
    <path fill-rule="evenodd" clip-rule="evenodd" d="M5.55556 15.5557C5.86238 15.5557 6.11111 15.8044 6.11111 16.1112L6.11111 17.2223C6.11111 17.5292 5.86238 17.7779 5.55556 17.7779C5.24873 17.7779 5 17.5292 5 17.2223L5 16.1112C5 15.8044 5.24873 15.5557 5.55556 15.5557Z" fill="#BDBFC7"/>
    <path fill-rule="evenodd" clip-rule="evenodd" d="M10.0009 8.88892C10.3077 8.88892 10.5564 9.13765 10.5564 9.44447L10.5564 13.8889C10.5564 14.1957 10.3077 14.4445 10.0009 14.4445C9.69404 14.4445 9.44531 14.1957 9.44531 13.8889L9.44531 9.44447C9.44531 9.13765 9.69404 8.88892 10.0009 8.88892Z" fill="#BDBFC7"/>
    <path fill-rule="evenodd" clip-rule="evenodd" d="M6.66688 8.88892C6.97371 8.88892 7.22244 9.13765 7.22244 9.44447L7.22244 13.8889C7.22244 14.1957 6.97371 14.4445 6.66688 14.4445C6.36006 14.4445 6.11133 14.1957 6.11133 13.8889L6.11133 9.44447C6.11133 9.13765 6.36006 8.88892 6.66688 8.88892Z" fill="#BDBFC7"/>
    <path fill-rule="evenodd" clip-rule="evenodd" d="M13.3329 8.88892C13.6397 8.88892 13.8885 9.13765 13.8885 9.44447L13.8885 13.8889C13.8885 14.1957 13.6397 14.4445 13.3329 14.4445C13.0261 14.4445 12.7773 14.1957 12.7773 13.8889L12.7773 9.44447C12.7773 9.13765 13.0261 8.88892 13.3329 8.88892Z" fill="#BDBFC7"/>
    <path fill-rule="evenodd" clip-rule="evenodd" d="M14.4442 15.5557C14.7511 15.5557 14.9998 15.8044 14.9998 16.1112L14.9998 17.2223C14.9998 17.5292 14.7511 17.7779 14.4442 17.7779C14.1374 17.7779 13.8887 17.5292 13.8887 17.2223L13.8887 16.1112C13.8887 15.8044 14.1374 15.5557 14.4442 15.5557Z" fill="#BDBFC7"/>
    <path fill-rule="evenodd" clip-rule="evenodd" d="M8.88911 3.33328C7.96863 3.33328 7.22244 4.07947 7.22244 4.99995V7.22217C7.22244 7.52899 6.97371 7.77772 6.66688 7.77772C6.36006 7.77772 6.11133 7.52899 6.11133 7.22217V4.99995C6.11133 3.46582 7.35498 2.22217 8.88911 2.22217H11.1113C12.6455 2.22217 13.8891 3.46582 13.8891 4.99995V7.22217C13.8891 7.52899 13.6404 7.77772 13.3336 7.77772C13.0267 7.77772 12.778 7.52899 12.778 7.22217V4.99995C12.778 4.07947 12.0318 3.33328 11.1113 3.33328H8.88911Z" fill="#BDBFC7"/>
</svg>