<svg width="25" height="26" viewBox="0 0 25 26" fill="none" xmlns="http://www.w3.org/2000/svg">
    <path fill-rule="evenodd" clip-rule="evenodd" d="M2.08337 12.0864C2.08337 6.85485 6.79298 2.75 12.5 2.75C18.2071 2.75 22.9167 6.85485 22.9167 12.0864C22.9167 17.318 18.2071 21.4228 12.5 21.4228C11.4048 21.4243 10.3156 21.2669 9.26651 20.9559L4.16913 23.5098C3.92662 23.6313 3.63557 23.6005 3.42388 23.4309C3.2122 23.2613 3.11862 22.984 3.18427 22.7208L4.37727 17.9388C2.92154 16.3427 2.10157 14.2617 2.0834 12.0922L2.08337 12.0864ZM3.47226 12.0835C3.48925 14.0209 4.26576 15.8744 5.63493 17.2454C5.8071 17.4178 5.87633 17.6678 5.81735 17.9042L4.89749 21.5914L8.89422 19.589C9.05732 19.5073 9.24601 19.493 9.41954 19.5493C10.4141 19.8719 11.4534 20.0355 12.499 20.034C17.5944 20.034 21.5278 16.4042 21.5278 12.0864C21.5278 7.7686 17.5954 4.13889 12.5 4.13889C7.40578 4.13889 3.47403 7.76697 3.47226 12.0835Z" fill="#121212" />
</svg>