<svg xmlns="http://www.w3.org/2000/svg" width="25" height="25" viewBox="0 0 25 25" fill="none">
    <path d="M5.5549 11.1111C6.32197 11.1111 6.94379 11.7329 6.94379 12.5C6.94379 13.2671 6.32197 13.8889 5.5549 13.8889C4.78784 13.8889 4.16602 13.2671 4.16602 12.5C4.16602 11.7329 4.78784 11.1111 5.5549 11.1111Z" fill="#FAFAFA"/>
    <path d="M12.5002 11.1111C13.2673 11.1111 13.8891 11.7329 13.8891 12.5C13.8891 13.2671 13.2673 13.8889 12.5002 13.8889C11.7332 13.8889 11.1113 13.2671 11.1113 12.5C11.1113 11.7329 11.7332 11.1111 12.5002 11.1111Z" fill="#FAFAFA"/>
    <path d="M19.4436 11.1111C20.2106 11.1111 20.8325 11.7329 20.8325 12.5C20.8325 13.2671 20.2106 13.8889 19.4436 13.8889C18.6765 13.8889 18.0547 13.2671 18.0547 12.5C18.0547 11.7329 18.6765 11.1111 19.4436 11.1111Z" fill="#FAFAFA"/>
</svg>