<svg width="18" height="18" viewBox="0 0 18 18" fill="none" xmlns="http://www.w3.org/2000/svg">
    <path fill-rule="evenodd" clip-rule="evenodd" d="M11.0407 4.2679C11.1624 4.5209 11.2371 4.91545 11.1717 5.38093C11.1062 5.84641 10.9257 6.2051 10.739 6.41475C10.6473 6.51772 10.5682 6.56954 10.5174 6.59258C10.4721 6.6131 10.4526 6.61027 10.4489 6.60973L10.4487 6.6097L10.4484 6.60967C10.4447 6.60916 10.4252 6.6065 10.3873 6.57431C10.3448 6.53815 10.2831 6.46652 10.2233 6.34227C10.1016 6.08927 10.0269 5.69472 10.0924 5.22924C10.1578 4.76377 10.3383 4.40508 10.525 4.19542C10.6167 4.09246 10.6958 4.04064 10.7467 4.01759C10.7919 3.99708 10.8114 3.99991 10.8151 4.00044L10.8154 4.00047L10.8156 4.00051C10.8193 4.00101 10.8389 4.00368 10.8767 4.03586C10.9192 4.07202 10.981 4.14365 11.0407 4.2679ZM10.9545 3.01021C11.7995 3.12896 12.3401 4.25268 12.1619 5.5201C11.9838 6.78753 11.1544 7.71872 10.3095 7.59997C9.46453 7.48122 8.92396 6.3575 9.10209 5.09007C9.28021 3.82264 10.1096 2.89146 10.9545 3.01021ZM7.30935 5.22979C7.37477 5.69527 7.30013 6.08982 7.17842 6.34282C7.11865 6.46707 7.05686 6.5387 7.01436 6.57486C6.97654 6.60704 6.95698 6.60971 6.95327 6.61022L6.95305 6.61025L6.95283 6.61028C6.94912 6.61082 6.92958 6.61364 6.88435 6.59313C6.83353 6.57009 6.7544 6.51826 6.66269 6.4153C6.47596 6.20565 6.29546 5.84696 6.23004 5.38148C6.16463 4.916 6.23927 4.52145 6.36097 4.26845C6.42074 4.1442 6.48253 4.07257 6.52503 4.03641C6.56285 4.00423 6.58241 4.00156 6.58613 4.00105L6.58635 4.00102L6.58656 4.00099C6.59028 4.00045 6.60981 3.99763 6.65504 4.01814C6.70586 4.04118 6.785 4.09301 6.8767 4.19597C7.06343 4.40562 7.24393 4.76431 7.30935 5.22979ZM8.29962 5.09062C8.47774 6.35805 7.93717 7.48177 7.09222 7.60052C6.24727 7.71927 5.4179 6.78808 5.23977 5.52065C5.06165 4.25322 5.60222 3.1295 6.44717 3.01075C7.29212 2.892 8.12149 3.82319 8.29962 5.09062ZM4.21646 8.26441C4.26489 8.06516 4.25101 7.78628 4.11487 7.49433C3.97873 7.20238 3.77402 7.01249 3.59026 6.92151C3.4086 6.83157 3.28945 6.85177 3.22743 6.88069C3.16541 6.90961 3.07335 6.9879 3.02548 7.18487C2.97706 7.38412 2.99093 7.663 3.12707 7.95495C3.26321 8.2469 3.46793 8.43679 3.65169 8.52777C3.83334 8.61771 3.95249 8.59751 4.01451 8.56859C4.07653 8.53967 4.1686 8.46138 4.21646 8.26441ZM4.43713 9.4749C5.21044 9.1143 5.47193 8.03835 5.02118 7.07171C4.57043 6.10507 3.57813 5.61378 2.80481 5.97438C2.0315 6.33499 1.77001 7.41093 2.22077 8.37757C2.67152 9.34421 3.66382 9.8355 4.43713 9.4749ZM8.90021 7.47804C10.4893 8.17523 11.6176 9.01084 12.3293 9.86744C13.0388 10.7214 13.3608 11.6336 13.2355 12.4477C13.1061 13.2884 12.5153 13.9136 11.6507 14.1671C10.8502 14.4017 9.83207 14.3192 8.68581 13.8761C7.53955 14.3192 6.52137 14.4017 5.72095 14.1671C4.85628 13.9136 4.26552 13.2884 4.13613 12.4477C4.01085 11.6336 4.33283 10.7214 5.04234 9.86744C5.75401 9.01084 6.88235 8.17523 8.47141 7.47804C8.53794 7.44654 8.6112 7.42975 8.68581 7.42975C8.76042 7.42975 8.83368 7.44654 8.90021 7.47804ZM8.68581 12.8371C8.61453 12.8371 8.54457 12.8524 8.48055 12.8812C7.39429 13.3313 6.55521 13.3695 6.00221 13.2074C5.46667 13.0505 5.18829 12.7101 5.1245 12.2956C5.0566 11.8544 5.2174 11.2216 5.81152 10.5065C6.37452 9.82883 7.30351 9.10995 8.68581 8.47772C10.0681 9.10995 10.9971 9.82883 11.5601 10.5065C12.1542 11.2216 12.315 11.8544 12.2471 12.2956C12.1833 12.7101 11.905 13.0505 11.3694 13.2074C10.8164 13.3695 9.97733 13.3313 8.89108 12.8812C8.82705 12.8524 8.75709 12.8371 8.68581 12.8371ZM14.2442 7.95497C14.1081 8.24692 13.9034 8.43681 13.7196 8.52779C13.538 8.61773 13.4188 8.59753 13.3568 8.56861C13.2948 8.53969 13.2027 8.4614 13.1548 8.26443C13.1064 8.06518 13.1203 7.7863 13.2564 7.49435C13.3926 7.2024 13.5973 7.01251 13.781 6.92153C13.9627 6.83159 14.0819 6.85179 14.1439 6.88071C14.2059 6.90963 14.298 6.98792 14.3458 7.18489C14.3942 7.38414 14.3804 7.66301 14.2442 7.95497ZM15.1505 8.37758C14.6998 9.34423 13.7075 9.83552 12.9342 9.47492C12.1609 9.11431 11.8994 8.03837 12.3501 7.07173C12.8009 6.10509 13.7932 5.6138 14.5665 5.9744C15.3398 6.335 15.6013 7.41094 15.1505 8.37758Z" fill="#BDBFC7" />
</svg>