<svg xmlns="http://www.w3.org/2000/svg" width="19" height="19" viewBox="0 0 19 19" fill="none">
    <g clip-path="url(#clip0_3511_55294)">
        <path fill-rule="evenodd" clip-rule="evenodd" d="M17.9444 9.5C17.9444 14.1637 14.1637 17.9444 9.5 17.9444C4.83626 17.9444 1.05556 14.1637 1.05556 9.5C1.05556 4.83626 4.83626 1.05556 9.5 1.05556C14.1637 1.05556 17.9444 4.83626 17.9444 9.5ZM19 9.5C19 14.7467 14.7467 19 9.5 19C4.25329 19 0 14.7467 0 9.5C0 4.25329 4.25329 0 9.5 0C14.7467 0 19 4.25329 19 9.5ZM11.0069 4.56848C10.5171 4.07867 9.72296 4.07867 9.23315 4.56848C8.74334 5.05829 8.74334 5.85244 9.23315 6.34225L9.24541 6.3545L8.01348 7.58533C7.86965 7.56685 7.68054 7.55062 7.45973 7.55078C6.96443 7.55112 6.29091 7.63397 5.61103 7.97601C5.16294 8.20145 4.93976 8.6214 4.9188 9.04708C4.89849 9.4594 5.06366 9.87793 5.37019 10.1845L6.53372 11.348L5.28036 12.601C5.07423 12.8071 5.07419 13.1413 5.28028 13.3474C5.48636 13.5536 5.82053 13.5536 6.02667 13.3475L7.28011 12.0944L8.44372 13.258C8.75025 13.5645 9.16878 13.7297 9.5811 13.7094C10.0068 13.6884 10.4267 13.4652 10.6522 13.0171C10.9942 12.3373 11.0771 11.6638 11.0774 11.1685C11.0776 10.9478 11.0614 10.7588 11.0429 10.615L12.275 9.38405L12.3153 9.42437C12.8051 9.91418 13.5992 9.91418 14.089 9.42437C14.5789 8.93456 14.5789 8.14042 14.089 7.65061L11.0069 4.56848Z" fill="#121212"/>
    </g>
    <defs>
        <clipPath id="clip0_3511_55294">
            <rect width="19" height="19" fill="white"/>
        </clipPath>
    </defs>
</svg>