<svg width="25" height="25" viewBox="0 0 25 25" fill="none" xmlns="http://www.w3.org/2000/svg">
    <path fill-rule="evenodd" clip-rule="evenodd" d="M20.5264 2.08642C21.1735 2.05404 21.8032 2.28053 22.2613 2.73864C22.7194 3.19675 22.9459 3.82641 22.9136 4.47359C22.8813 5.11767 22.5969 5.73121 22.1378 6.19033L18.1036 10.2244C18.0903 10.2377 18.0824 10.252 18.0789 10.2626C18.0773 10.2672 18.0769 10.2702 18.0767 10.2716L19.8737 20.1016C19.8737 20.1016 19.8737 20.1016 19.8737 20.1016C19.9165 20.3359 19.8962 20.5743 19.8232 20.7946C19.7503 21.0148 19.6258 21.214 19.4636 21.3766L18.6851 22.1552C18.5393 22.3009 18.3638 22.4164 18.1701 22.4914C17.9763 22.5665 17.7661 22.6004 17.5544 22.5849C17.3423 22.5693 17.1344 22.5044 16.9497 22.39C16.7646 22.2754 16.612 22.1168 16.5046 21.9277L12.8504 15.4818C12.8436 15.4859 12.8365 15.4914 12.8297 15.4982L10.2713 18.0566C10.2603 18.0676 10.2525 18.0797 10.2483 18.0898C10.2443 18.0994 10.2442 18.1048 10.2442 18.1048L10.2997 21.4278C10.3109 22.1168 9.85831 22.6182 9.35734 22.815C8.85238 23.0133 8.14441 22.9489 7.73441 22.3308C7.73427 22.3306 7.73455 22.331 7.73441 22.3308L5.70975 19.2899L2.66839 17.265C2.05131 16.8546 1.98656 16.1472 2.18505 15.6419C2.38197 15.1406 2.88305 14.6887 3.5716 14.6992L6.89558 14.7547C6.89499 14.7546 6.90059 14.7548 6.91065 14.7506C6.9207 14.7464 6.93242 14.739 6.94336 14.7282C6.94329 14.7282 6.94344 14.7281 6.94336 14.7282L9.50173 12.1699C9.50853 12.1631 9.51397 12.1559 9.51811 12.1492L3.0738 8.49674C2.88453 8.38955 2.72517 8.23689 2.61026 8.05189C2.49543 7.86702 2.43025 7.65898 2.41455 7.4466C2.39889 7.23464 2.43277 7.02413 2.50791 6.83013C2.58302 6.63624 2.6985 6.46073 2.84442 6.31483C2.84441 6.31483 2.84443 6.31482 2.84442 6.31483L3.62238 5.53688C3.785 5.37465 3.98483 5.24963 4.20499 5.17668C4.42535 5.10366 4.66367 5.08339 4.89797 5.12624L14.7273 6.92401C14.7287 6.92387 14.7318 6.92341 14.7364 6.92187C14.7471 6.91831 14.7613 6.91049 14.7746 6.89715L18.8096 2.86219C19.2687 2.40307 19.8823 2.11864 20.5264 2.08642ZM18.0762 10.2689C18.0762 10.2689 18.0763 10.269 18.0762 10.2689V10.2689ZM21.2792 3.72074C21.1151 3.55664 20.8749 3.45961 20.5957 3.47357C20.3135 3.48769 20.0203 3.61566 19.7917 3.84429L15.7584 7.87747C15.7583 7.87757 15.7585 7.87737 15.7584 7.87747C15.5958 8.04058 15.396 8.16608 15.1754 8.23957C14.9544 8.31318 14.7153 8.33372 14.4802 8.29074L4.65082 6.49296C4.64943 6.4931 4.64642 6.49356 4.64185 6.49507C4.6313 6.49857 4.61728 6.50626 4.60405 6.5194C4.60399 6.51946 4.60411 6.51934 4.60405 6.5194L3.8265 7.29693C3.8197 7.30373 3.81426 7.31084 3.81013 7.31761L10.2544 10.97C10.2543 10.97 10.2546 10.9701 10.2544 10.97C10.4437 11.0772 10.6031 11.2299 10.718 11.4149C10.8328 11.5998 10.898 11.8078 10.9137 12.0202C10.9293 12.2321 10.8955 12.4426 10.8203 12.6366C10.7452 12.8305 10.6297 13.0061 10.4838 13.152C10.4838 13.152 10.4838 13.1519 10.4838 13.152L7.92519 15.7105C7.78835 15.8471 7.62505 15.9574 7.44541 16.0324C7.26576 16.1073 7.07075 16.1467 6.8724 16.1433C6.87235 16.1433 6.87245 16.1433 6.8724 16.1433L3.55058 16.0879C3.55049 16.0879 3.55067 16.0879 3.55058 16.0879C3.54016 16.0878 3.53392 16.0893 3.53052 16.0904C3.52668 16.0916 3.52178 16.0939 3.51578 16.0983C3.50429 16.1067 3.49178 16.121 3.48277 16.1387L6.49496 18.1441C6.63781 18.2393 6.76023 18.3617 6.8554 18.5045L8.86112 21.517C8.87856 21.508 8.89261 21.4956 8.90089 21.4843C8.90525 21.4784 8.90742 21.4736 8.90862 21.47C8.90967 21.4668 8.91111 21.4611 8.91096 21.4509C8.91096 21.4509 8.91097 21.451 8.91096 21.4509L8.8555 18.1283C8.8555 18.1282 8.8555 18.1283 8.8555 18.1283C8.85216 17.9295 8.89167 17.734 8.9669 17.554C9.04209 17.3742 9.15226 17.2113 9.2892 17.0745C9.28911 17.0746 9.28929 17.0744 9.2892 17.0745L11.8478 14.5159C11.9936 14.3702 12.1691 14.2547 12.3628 14.1797C12.5565 14.1046 12.7668 14.0707 12.9785 14.0862C13.1906 14.1017 13.3984 14.1666 13.5832 14.2811C13.7683 14.3957 13.9209 14.5543 14.0283 14.7434L17.6825 21.1892C17.6892 21.1851 17.6962 21.1798 17.703 21.1731M17.703 21.1731L18.4803 20.3957C18.4803 20.3958 18.4804 20.3956 18.4803 20.3957C18.4934 20.3825 18.5014 20.3683 18.5048 20.3577C18.5064 20.3532 18.5068 20.3502 18.507 20.3488L16.71 10.5188C16.71 10.5187 16.71 10.5188 16.71 10.5188C16.6671 10.2841 16.6875 10.0453 16.7608 9.82468C16.834 9.60429 16.9589 9.40491 17.1215 9.2423C17.1215 9.24235 17.1216 9.24225 17.1215 9.2423L21.1557 5.20823C21.3843 4.9796 21.5123 4.68639 21.5264 4.40419C21.5404 4.1251 21.4433 3.88484 21.2792 3.72074" fill="#121212" />
</svg>