<svg width="14" height="14" viewBox="0 0 14 14" fill="none" xmlns="http://www.w3.org/2000/svg">
    <path fill-rule="evenodd" clip-rule="evenodd" d="M12.085 7.35869C12.2836 7.35869 12.4446 7.19771 12.4446 6.99913C12.4446 6.80055 12.2836 6.63958 12.085 6.63958H7.35966V1.91424C7.35966 1.71567 7.19869 1.55469 7.00011 1.55469C6.80153 1.55469 6.64055 1.71567 6.64055 1.91424V6.63958H1.91522C1.71664 6.63958 1.55566 6.80056 1.55566 6.99913C1.55566 7.19771 1.71664 7.35869 1.91522 7.35869L6.64055 7.35869V12.084C6.64055 12.2826 6.80153 12.4436 7.00011 12.4436C7.19869 12.4436 7.35966 12.2826 7.35966 12.084V7.35869H12.085Z" fill="#BDBFC7" />
</svg>