<svg width="26" height="26" viewBox="0 0 26 26" fill="none" xmlns="http://www.w3.org/2000/svg">
    <path fill-rule="evenodd" clip-rule="evenodd" d="M5.01865 18.9099C1.59067 14.5016 2.38531 8.14915 6.79352 4.72117C7.1084 4.47631 7.56214 4.53307 7.807 4.84794L12.8025 11.2719C13.2966 11.204 13.8125 11.3942 14.1407 11.8162C14.6304 12.446 14.5169 13.3535 13.8871 13.8432C13.2574 14.3329 12.3499 14.2194 11.8602 13.5896C11.532 13.1676 11.4747 12.6208 11.6622 12.1586L9.80698 9.77283C8.40019 11.3024 8.26159 13.6681 9.57967 15.3631C11.0488 17.2523 13.7713 17.5928 15.6605 16.1237C17.5498 14.6546 17.8903 11.9321 16.4212 10.0428C15.8867 9.35551 15.1863 8.87316 14.4205 8.60837C14.0361 8.47545 13.7656 8.09567 13.8448 7.69669C13.9206 7.31407 14.2896 7.05721 14.6633 7.16914C15.774 7.50186 16.7955 8.17113 17.5615 9.15614C19.5203 11.6751 19.0662 15.3051 16.5472 17.264C14.0283 19.2228 10.3983 18.7687 8.43941 16.2498C6.63071 13.9239 6.87921 10.6507 8.91094 8.62057L7.12831 6.32819C3.84188 9.34873 3.36993 14.4367 6.1589 18.0232C9.09717 21.8016 14.5422 22.4827 18.3206 19.5445C19.5344 18.6006 20.4286 17.3981 20.9858 16.0752C21.1113 15.7773 21.4486 15.6253 21.7673 15.679C22.1787 15.7484 22.5168 16.1489 22.3591 16.5351C21.7123 18.1187 20.6546 19.5593 19.2073 20.6847C14.7991 24.1127 8.44663 23.3181 5.01865 18.9099ZM21.851 9.96857C21.531 10.0127 21.194 9.85286 21.0764 9.55197C20.7793 8.79135 20.3688 8.06025 19.842 7.38274C18.639 5.8358 17.0159 4.80802 15.259 4.33524C14.8696 4.23045 14.6075 3.85033 14.6859 3.4548C14.7626 3.06807 15.1364 2.81195 15.5183 2.90985C17.6129 3.44682 19.5521 4.65695 20.9822 6.49604C21.6207 7.3171 22.1127 8.20561 22.4621 9.13011C22.6097 9.52057 22.2645 9.91153 21.851 9.96857ZM23.1352 13.9707C23.765 13.481 23.8785 12.5735 23.3888 11.9438C22.8991 11.314 21.9916 11.2005 21.3618 11.6902C20.7321 12.1799 20.6185 13.0874 21.1083 13.7172C21.598 14.3469 22.5055 14.4604 23.1352 13.9707Z" fill="#121212" />
</svg>