<svg width="19" height="18" viewBox="0 0 19 18" fill="none" xmlns="http://www.w3.org/2000/svg">
    <path d="M15.3311 10.4197C15.3893 10.1795 15.5981 10 15.8453 10C16.1534 10 16.3914 10.2737 16.3224 10.5739C15.6083 13.682 12.8248 16 9.5 16C5.63403 16 2.5 12.866 2.5 9C2.5 5.134 5.63403 2 9.5 2C11.4587 2 13.2295 2.80444 14.5 4.10101V2.5C14.5 2.22385 14.7239 2 15 2C15.2761 2 15.5 2.22385 15.5 2.5V5.5C15.5 5.77615 15.2761 6 15 6H12C11.7239 6 11.5 5.77615 11.5 5.5C11.5 5.22385 11.7239 5 12 5H13.9723C12.8723 3.77109 11.2765 3 9.5 3C6.18628 3 3.5 5.68628 3.5 9C3.5 12.3137 6.18628 15 9.5 15C12.3246 15 14.6932 13.0482 15.3311 10.4197Z" fill="#121212" />
</svg>