<svg width="25" height="25" viewBox="0 0 25 25" fill="none" xmlns="http://www.w3.org/2000/svg">
    <path fill-rule="evenodd" clip-rule="evenodd" d="M13.1944 5.55553C13.1944 5.172 12.8835 4.86108 12.4999 4.86108C12.1164 4.86108 11.8055 5.172 11.8055 5.55553V6.97295C7.75709 7.307 4.52925 10.5349 4.19526 14.5833H4.16661C3.78308 14.5833 3.47217 14.8942 3.47217 15.2778C3.47217 15.6613 3.78308 15.9722 4.16661 15.9722H20.8333C21.2168 15.9722 21.5277 15.6613 21.5277 15.2778C21.5277 14.8942 21.2168 14.5833 20.8333 14.5833H20.8049C20.4709 10.5348 17.2429 7.30687 13.1944 6.97293V5.55553ZM12.5001 8.33331C16.101 8.33331 19.0618 11.0741 19.4102 14.5833H5.58992C5.93834 11.0741 8.89914 8.33331 12.5001 8.33331ZM3.47217 18.0555C3.47217 17.672 3.78308 17.3611 4.16661 17.3611H20.8333C21.2168 17.3611 21.5277 17.672 21.5277 18.0555C21.5277 18.4391 21.2168 18.75 20.8333 18.75H4.16661C3.78308 18.75 3.47217 18.4391 3.47217 18.0555ZM8.04582 13.8889C8.35302 13.8889 8.62155 13.6926 8.75956 13.4182C9.16617 12.6096 9.82727 11.9509 10.6377 11.5474C10.9136 11.4101 11.1112 11.1409 11.1112 10.8327C11.1112 10.3584 10.6615 10.0112 10.2284 10.2047C8.98329 10.7612 7.97972 11.7611 7.41846 13.0036C7.22266 13.4371 7.5702 13.8889 8.04582 13.8889Z" fill="#121212" />
</svg>