<svg width="19" height="19" viewBox="0 0 19 19" fill="none" xmlns="http://www.w3.org/2000/svg">
    <path fill-rule="evenodd" clip-rule="evenodd" d="M13.521 2.70814C13.3406 2.52779 13.0482 2.52779 12.8679 2.70814C12.6875 2.88848 12.6875 3.18088 12.8679 3.36123L15.3122 5.80551H2.57289C2.31784 5.80551 2.11108 6.01227 2.11108 6.26732C2.11108 6.52237 2.31784 6.72912 2.57289 6.72912H15.3122L12.8679 9.17341C12.6875 9.35376 12.6875 9.64616 12.8679 9.8265C13.0482 10.0068 13.3406 10.0068 13.521 9.8265L16.7536 6.59386C16.9339 6.41352 16.9339 6.12112 16.7536 5.94077L13.521 2.70814ZM5.47898 16.2918C5.65933 16.4721 5.95173 16.4721 6.13207 16.2918C6.31242 16.1114 6.31242 15.819 6.13207 15.6387L3.68779 13.1944L16.4271 13.1944C16.6821 13.1944 16.8889 12.9876 16.8889 12.7326C16.8889 12.4775 16.6821 12.2708 16.4271 12.2708L3.68779 12.2708L6.13207 9.8265C6.31242 9.64616 6.31242 9.35376 6.13207 9.17341C5.95173 8.99306 5.65933 8.99306 5.47898 9.17341L2.24634 12.406C2.066 12.5864 2.066 12.8788 2.24634 13.0591L5.47898 16.2918Z" fill="#121212" />
</svg>