<svg width="25" height="26" viewBox="0 0 25 26" fill="none" xmlns="http://www.w3.org/2000/svg">
    <path fill-rule="evenodd" clip-rule="evenodd" d="M11.8056 22.5312C6.98963 22.1913 3.14211 18.3438 2.80222 13.5278H5.58987C5.91564 16.809 8.52518 19.4183 11.8064 19.7436C11.8059 19.755 11.8056 19.7664 11.8056 19.7778V22.5312ZM13.1945 22.5312V19.7778C13.1945 19.7664 13.1942 19.755 13.1936 19.7436C16.4749 19.4183 19.0844 16.809 19.4102 13.5278H22.1978C21.8579 18.3438 18.0104 22.1913 13.1945 22.5312ZM12.5 23.9445C18.6365 23.9445 23.6111 18.9699 23.6111 12.8334C23.6111 6.6969 18.6365 1.72229 12.5 1.72229C6.36353 1.72229 1.38892 6.6969 1.38892 12.8334C1.38892 18.9699 6.36353 23.9445 12.5 23.9445ZM22.1978 12.139C21.8579 7.323 18.0104 3.47548 13.1945 3.1356V5.88896C13.1945 5.90043 13.1942 5.91183 13.1936 5.92316C16.4749 6.24854 19.0844 8.85783 19.4102 12.139H22.1978ZM2.80222 12.139C3.14211 7.323 6.98963 3.47548 11.8056 3.1356V5.88896C11.8056 5.90043 11.8059 5.91183 11.8064 5.92316C8.52518 6.24855 5.91564 8.85784 5.58987 12.139H2.80222ZM18.0556 12.8334C18.0556 9.76515 15.5683 7.27785 12.5 7.27785C9.43178 7.27785 6.94447 9.76515 6.94447 12.8334C6.94447 15.9016 9.43178 18.389 12.5 18.389C15.5683 18.389 18.0556 15.9016 18.0556 12.8334Z" fill="#121212" />
</svg>