<svg width="19" height="19" viewBox="0 0 19 19" fill="none" xmlns="http://www.w3.org/2000/svg">
    <path fill-rule="evenodd" clip-rule="evenodd" d="M3.8704 3.69447C3.82644 3.69447 3.78258 3.71213 3.74892 3.74632C3.71499 3.78079 3.69447 3.82928 3.69447 3.88156V5.01522C3.69447 5.01526 3.69447 5.01519 3.69447 5.01522C3.69451 5.06745 3.71503 5.116 3.74894 5.15044L8.2625 9.73558C8.26252 9.7356 8.26248 9.73556 8.2625 9.73558C8.49249 9.96918 8.62033 10.2843 8.6204 10.6112V14.7611C8.6204 14.8049 8.63487 14.8465 8.66009 14.8793C8.6852 14.912 8.71912 14.9338 8.75548 14.943L10.1626 15.3004C10.1875 15.3067 10.2135 15.3073 10.2385 15.3019C10.2635 15.2965 10.2876 15.2853 10.3088 15.2685C10.33 15.2517 10.3479 15.2296 10.3604 15.2035C10.373 15.1774 10.3797 15.1483 10.3797 15.1185V10.6113C10.3797 10.2844 10.5075 9.96923 10.7375 9.73564C10.7375 9.73562 10.7375 9.73566 10.7375 9.73564L15.2511 5.1505C15.285 5.11606 15.3055 5.06756 15.3056 5.01533C15.3056 5.0153 15.3056 5.01537 15.3056 5.01533V3.88156C15.3056 3.82928 15.2851 3.78079 15.2511 3.74632C15.2175 3.71213 15.1736 3.69447 15.1297 3.69447H3.8704ZM2.99668 3.00583C3.22697 2.77189 3.54108 2.63892 3.8704 2.63892H15.1297C15.459 2.63892 15.7731 2.77189 16.0034 3.00583C16.2334 3.23948 16.3611 3.55465 16.3611 3.88156V5.01533C16.3611 5.34219 16.2333 5.65739 16.0033 5.89099C16.0033 5.89101 16.0033 5.89097 16.0033 5.89099L11.4897 10.4761C11.4558 10.5106 11.4353 10.5591 11.4352 10.6113C11.4352 10.6113 11.4352 10.6113 11.4352 10.6113V15.1185C11.4352 15.3061 11.3931 15.4914 11.3118 15.6606C11.2305 15.8299 11.112 15.9788 10.9645 16.0956C10.8171 16.2125 10.6447 16.2942 10.4604 16.3338C10.2762 16.3735 10.0854 16.3699 9.90282 16.3235C9.90273 16.3234 9.9029 16.3235 9.90282 16.3235L8.49541 15.966C8.22743 15.8978 7.99095 15.741 7.82303 15.5224C7.65522 15.304 7.56485 15.036 7.56484 14.7611V10.6114C7.56484 10.6114 7.56484 10.6114 7.56484 10.6114C7.5648 10.5592 7.54428 10.5106 7.51037 10.4762L2.99682 5.89105C2.9968 5.89103 2.99683 5.89107 2.99682 5.89105C2.76683 5.65745 2.63898 5.3423 2.63892 5.01544V3.88156C2.63892 3.55465 2.76668 3.23948 2.99668 3.00583Z" fill="#121212" />
</svg>