<svg width="18" height="18" viewBox="0 0 18 18" fill="none" xmlns="http://www.w3.org/2000/svg">
<path d="M11.6382 2.74218C11.5478 2.5919 11.3852 2.5 11.2098 2.5C11.0344 2.5 10.8719 2.5919 10.7814 2.74218L9.08028 5.56892L5.86621 6.3133C5.69534 6.35287 5.5577 6.47909 5.5035 6.6459C5.4493 6.81271 5.48647 6.99572 5.60145 7.12817L7.76414 9.61957L7.47889 12.9064C7.46373 13.0811 7.54123 13.251 7.68313 13.3541C7.82502 13.4572 8.01057 13.4784 8.17207 13.41L11.2098 12.123L14.2476 13.41C14.4091 13.4784 14.5947 13.4572 14.7366 13.3541C14.8784 13.251 14.9559 13.0811 14.9408 12.9064L14.6555 9.61957L16.8182 7.12817C16.9332 6.99572 16.9704 6.81271 16.9162 6.6459C16.862 6.47909 16.7243 6.35287 16.5535 6.3133L13.3394 5.56892L11.6382 2.74218Z" stroke="#BDBFC7" stroke-linejoin="round"/>
<path d="M3.17201 9.46441C3.08157 9.31413 2.919 9.22223 2.7436 9.22223C2.56821 9.22223 2.40564 9.31413 2.3152 9.46441L1.82096 10.2857L0.887185 10.5019C0.716314 10.5415 0.578672 10.6677 0.524472 10.8345C0.470272 11.0013 0.50744 11.1843 0.622417 11.3168L1.25074 12.0406L1.16787 12.9955C1.1527 13.1703 1.23021 13.3402 1.3721 13.4433C1.514 13.5464 1.69954 13.5676 1.86104 13.4991L2.7436 13.1252L3.62616 13.4991C3.78766 13.5676 3.97321 13.5464 4.1151 13.4433C4.257 13.3402 4.3345 13.1703 4.31934 12.9955L4.23646 12.0406L4.86479 11.3168C4.97977 11.1843 5.01694 11.0013 4.96274 10.8345C4.90854 10.6677 4.77089 10.5415 4.60002 10.5019L3.66624 10.2857L3.17201 9.46441Z" stroke="#BDBFC7" stroke-linejoin="round"/>
</svg>
