<svg width="12" height="12" viewBox="0 0 12 12" fill="none" xmlns="http://www.w3.org/2000/svg">
<g id="Group 2643">
<path id="Subtract" fill-rule="evenodd" clip-rule="evenodd" d="M6 0C2.68629 0 0 2.68629 0 6C0 9.31371 2.68629 12 6 12C9.31371 12 12 9.31371 12 6C12 2.68629 9.31371 0 6 0ZM8.92522 4.858C9.12294 4.66523 9.12695 4.34867 8.93417 4.15095C8.7414 3.95323 8.42484 3.94922 8.22712 4.142L5.49925 6.80168L3.92522 5.267C3.7275 5.07422 3.41095 5.07823 3.21817 5.27595C3.0254 5.47367 3.0294 5.79023 3.22712 5.983L5.1502 7.858C5.34439 8.04733 5.65411 8.04733 5.8483 7.858L8.92522 4.858Z" fill="#9761FF"/>
</g>
</svg>
