<svg width="18" height="18" viewBox="0 0 18 18" fill="none" xmlns="http://www.w3.org/2000/svg">
<path fill-rule="evenodd" clip-rule="evenodd" d="M9 3C5.68629 3 3 5.68629 3 9C3 12.3137 5.68629 15 9 15C12.3137 15 15 12.3137 15 9C15 5.68629 12.3137 3 9 3ZM11.9252 7.858C12.1229 7.66523 12.1269 7.34867 11.9342 7.15095C11.7414 6.95323 11.4248 6.94922 11.2271 7.142L8.49925 9.80168L6.92522 8.267C6.7275 8.07422 6.41095 8.07823 6.21817 8.27595C6.0254 8.47367 6.0294 8.79023 6.22712 8.983L8.1502 10.858C8.34439 11.0473 8.65411 11.0473 8.8483 10.858L11.9252 7.858Z" fill="#121212"/>
</svg>
