<svg width="18" height="18" viewBox="0 0 18 18" fill="none" xmlns="http://www.w3.org/2000/svg">
    <path fill-rule="evenodd" clip-rule="evenodd" d="M14 9C14 11.7614 11.7614 14 9 14C6.23858 14 4 11.7614 4 9C4 6.23858 6.23858 4 9 4C11.7614 4 14 6.23858 14 9ZM9 15C12.3137 15 15 12.3137 15 9C15 5.68629 12.3137 3 9 3C5.68629 3 3 5.68629 3 9C3 12.3137 5.68629 15 9 15ZM11.9257 7.858C12.1234 7.66523 12.1274 7.34867 11.9347 7.15095C11.7419 6.95323 11.4253 6.94923 11.2276 7.142L8.49974 9.80168L6.92571 8.267C6.72799 8.07423 6.41144 8.07823 6.21866 8.27595C6.02589 8.47367 6.02989 8.79023 6.22761 8.983L8.15069 10.858C8.34488 11.0473 8.6546 11.0473 8.84879 10.858L11.9257 7.858Z" fill="#BDBFC7" />
</svg>