<svg width="18" height="18" viewBox="0 0 18 18" fill="none" xmlns="http://www.w3.org/2000/svg">
    <path fill-rule="evenodd" clip-rule="evenodd" d="M13.375 7.375H4.625C3.6585 7.375 2.875 8.1585 2.875 9.125V11.875C2.875 12.8415 3.6585 13.625 4.625 13.625H13.375C14.3415 13.625 15.125 12.8415 15.125 11.875V9.125C15.125 8.1585 14.3415 7.375 13.375 7.375ZM4.625 6.5C3.17525 6.5 2 7.67525 2 9.125V11.875C2 13.3247 3.17525 14.5 4.625 14.5H13.375C14.8247 14.5 16 13.3247 16 11.875V9.125C16 7.67525 14.8247 6.5 13.375 6.5H4.625Z" fill="#121212" />
    <path fill-rule="evenodd" clip-rule="evenodd" d="M5 14C5.27614 14 5.5 14.2239 5.5 14.5L5.5 15.5C5.5 15.7761 5.27614 16 5 16C4.72386 16 4.5 15.7761 4.5 15.5L4.5 14.5C4.5 14.2239 4.72386 14 5 14Z" fill="#121212" />
    <path fill-rule="evenodd" clip-rule="evenodd" d="M9 8C9.27614 8 9.5 8.22386 9.5 8.5L9.5 12.5C9.5 12.7761 9.27614 13 9 13C8.72386 13 8.5 12.7761 8.5 12.5L8.5 8.5C8.5 8.22386 8.72386 8 9 8Z" fill="#121212" />
    <path fill-rule="evenodd" clip-rule="evenodd" d="M6 8C6.27614 8 6.5 8.22386 6.5 8.5L6.5 12.5C6.5 12.7761 6.27614 13 6 13C5.72386 13 5.5 12.7761 5.5 12.5L5.5 8.5C5.5 8.22386 5.72386 8 6 8Z" fill="#121212" />
    <path fill-rule="evenodd" clip-rule="evenodd" d="M12 8C12.2761 8 12.5 8.22386 12.5 8.5L12.5 12.5C12.5 12.7761 12.2761 13 12 13C11.7239 13 11.5 12.7761 11.5 12.5L11.5 8.5C11.5 8.22386 11.7239 8 12 8Z" fill="#121212" />
    <path fill-rule="evenodd" clip-rule="evenodd" d="M13 14C13.2761 14 13.5 14.2239 13.5 14.5L13.5 15.5C13.5 15.7761 13.2761 16 13 16C12.7239 16 12.5 15.7761 12.5 15.5L12.5 14.5C12.5 14.2239 12.7239 14 13 14Z" fill="#121212" />
    <path fill-rule="evenodd" clip-rule="evenodd" d="M8 3C7.17157 3 6.5 3.67157 6.5 4.5V6.5C6.5 6.77614 6.27614 7 6 7C5.72386 7 5.5 6.77614 5.5 6.5V4.5C5.5 3.11929 6.61929 2 8 2H10C11.3807 2 12.5 3.11929 12.5 4.5V6.5C12.5 6.77614 12.2761 7 12 7C11.7239 7 11.5 6.77614 11.5 6.5V4.5C11.5 3.67157 10.8284 3 10 3H8Z" fill="#121212" />
</svg>