<svg width="25" height="25" viewBox="0 0 25 25" fill="none" xmlns="http://www.w3.org/2000/svg">
    <path fill-rule="evenodd" clip-rule="evenodd" d="M17.7908 3.56335C17.5535 3.32605 17.1688 3.32605 16.9315 3.56335C16.6942 3.80065 16.6942 4.18538 16.9315 4.42268L20.1477 7.63885H3.38547C3.04988 7.63885 2.77783 7.9109 2.77783 8.24649C2.77783 8.58207 3.04988 8.85412 3.38547 8.85412H20.1477L16.9315 12.0703C16.6942 12.3076 16.6942 12.6923 16.9315 12.9296C17.1688 13.1669 17.5535 13.1669 17.7908 12.9296L22.0443 8.67615C22.2816 8.43885 22.2816 8.05412 22.0443 7.81682L17.7908 3.56335ZM7.20928 21.4366C7.44658 21.6739 7.83131 21.6739 8.06861 21.4366C8.30591 21.1993 8.30591 20.8145 8.06861 20.5772L4.85244 17.3611L21.6146 17.3611C21.9502 17.3611 22.2223 17.089 22.2223 16.7534C22.2223 16.4178 21.9502 16.1458 21.6146 16.1458L4.85244 16.1458L8.06861 12.9296C8.30591 12.6923 8.30591 12.3076 8.06861 12.0703C7.83131 11.833 7.44657 11.833 7.20928 12.0703L2.95581 16.3238C2.71851 16.5611 2.71851 16.9458 2.95581 17.1831L7.20928 21.4366Z" fill="#121212" />
</svg>