<svg width="19" height="19" viewBox="0 0 19 19" fill="none" xmlns="http://www.w3.org/2000/svg">
    <path fill-rule="evenodd" clip-rule="evenodd" d="M10.0278 5.80557C10.3193 5.80557 10.5556 6.04187 10.5556 6.33335V7.38891C10.5556 7.68039 10.3193 7.91668 10.0278 7.91668C9.73629 7.91668 9.5 7.68039 9.5 7.38891V6.33335C9.5 6.04187 9.73629 5.80557 10.0278 5.80557Z" fill="#121212" />
    <path fill-rule="evenodd" clip-rule="evenodd" d="M10.0278 11.0833C10.3193 11.0833 10.5556 11.3196 10.5556 11.6111V12.6667C10.5556 12.9582 10.3193 13.1945 10.0278 13.1945C9.73629 13.1945 9.5 12.9582 9.5 12.6667V11.6111C9.5 11.3196 9.73629 11.0833 10.0278 11.0833Z" fill="#121212" />
    <path fill-rule="evenodd" clip-rule="evenodd" d="M10.0278 8.44446C10.3193 8.44446 10.5556 8.68075 10.5556 8.97224V10.0278C10.5556 10.3193 10.3193 10.5556 10.0278 10.5556C9.73629 10.5556 9.5 10.3193 9.5 10.0278V8.97224C9.5 8.68075 9.73629 8.44446 10.0278 8.44446Z" fill="#121212" />
    <path fill-rule="evenodd" clip-rule="evenodd" d="M4.2222 5.27778C3.63923 5.27778 3.16664 5.75037 3.16664 6.33334V12.6667C3.16664 13.2496 3.63923 13.7222 4.2222 13.7222H15.8333V12.4865C14.6034 12.0518 13.7222 10.8788 13.7222 9.50001C13.7222 8.12122 14.6034 6.94825 15.8333 6.51353V5.27778H4.2222ZM16.8889 5.27778C16.8889 4.69482 16.4163 4.22223 15.8333 4.22223H4.2222C3.05626 4.22223 2.11108 5.16741 2.11108 6.33334V12.6667C2.11108 13.8326 3.05626 14.7778 4.2222 14.7778H15.8333C16.4163 14.7778 16.8889 14.3052 16.8889 13.7222V11.6111C15.7229 11.6111 14.7778 10.6659 14.7778 9.50001C14.7778 8.33407 15.7229 7.3889 16.8889 7.3889V5.27778Z" fill="#121212" />
</svg>