<svg width="14" height="14" viewBox="0 0 14 14" fill="none" xmlns="http://www.w3.org/2000/svg">
<g id="&#208;&#178;&#209;&#128;&#208;&#181;&#208;&#188;&#209;&#143;" clip-path="url(#clip0_1774_40268)">
<path id="Union" fill-rule="evenodd" clip-rule="evenodd" d="M14 7C14 10.866 10.866 14 7 14C3.13401 14 0 10.866 0 7C0 3.13401 3.13401 0 7 0C10.866 0 14 3.13401 14 7Z" fill="#BDBFC7"/>
<g id="Group 2808">
<path id="Vector 458 (Stroke)" fill-rule="evenodd" clip-rule="evenodd" d="M7.0013 4.3335C7.1854 4.3335 7.33464 4.48273 7.33464 4.66683V6.72402C7.33464 6.81243 7.36975 6.89721 7.43227 6.95972L8.57034 8.09779C8.70051 8.22797 8.70051 8.43902 8.57034 8.5692C8.44016 8.69937 8.22911 8.69937 8.09893 8.5692L6.96086 7.43113C6.77333 7.24359 6.66797 6.98924 6.66797 6.72402V4.66683C6.66797 4.48273 6.81721 4.3335 7.0013 4.3335Z" fill="#FAFAFA"/>
<path id="Ellipse 246 (Stroke)" fill-rule="evenodd" clip-rule="evenodd" d="M7 10.3333C8.84095 10.3333 10.3333 8.84095 10.3333 7C10.3333 5.15905 8.84095 3.66667 7 3.66667C5.15905 3.66667 3.66667 5.15905 3.66667 7C3.66667 8.84095 5.15905 10.3333 7 10.3333ZM7 11C9.20914 11 11 9.20914 11 7C11 4.79086 9.20914 3 7 3C4.79086 3 3 4.79086 3 7C3 9.20914 4.79086 11 7 11Z" fill="#FAFAFA"/>
</g>
</g>
<defs>
<clipPath id="clip0_1774_40268">
<rect width="14" height="14" fill="white"/>
</clipPath>
</defs>
</svg>
