<svg width="25" height="25" viewBox="0 0 25 25" fill="none" xmlns="http://www.w3.org/2000/svg">
    <path fill-rule="evenodd" clip-rule="evenodd" d="M2.08337 6.94442C2.08337 5.79382 3.01611 4.86108 4.16671 4.86108H14.9306C19.3412 4.86108 22.9167 8.43659 22.9167 12.8472C22.9167 14.9566 21.2067 16.6666 19.0973 16.6666H4.16671C3.01611 16.6666 2.08337 15.7339 2.08337 14.5833V6.94442ZM4.16671 6.24997C3.78318 6.24997 3.47226 6.56089 3.47226 6.94442V14.5833C3.47226 14.9668 3.78318 15.2778 4.16671 15.2778H19.0973C20.4396 15.2778 21.5278 14.1896 21.5278 12.8472C21.5278 9.20365 18.5741 6.24997 14.9306 6.24997H4.16671ZM2.08337 19.4444C2.08337 19.0609 2.39429 18.75 2.77782 18.75H22.2223C22.6058 18.75 22.9167 19.0609 22.9167 19.4444C22.9167 19.8279 22.6058 20.1389 22.2223 20.1389H2.77782C2.39429 20.1389 2.08337 19.8279 2.08337 19.4444Z" fill="#121212" />
    <path fill-rule="evenodd" clip-rule="evenodd" d="M2.73145 11.8055C2.73145 11.422 3.04236 11.1111 3.42589 11.1111L21.574 11.1111C21.9576 11.1111 22.2685 11.422 22.2685 11.8055C22.2685 12.1891 21.9576 12.5 21.574 12.5L3.42589 12.5C3.04236 12.5 2.73145 12.1891 2.73145 11.8055Z" fill="#121212" />
    <path fill-rule="evenodd" clip-rule="evenodd" d="M14.4444 4.86108C14.828 4.86108 15.1389 5.172 15.1389 5.55553V11.8055C15.1389 12.1891 14.828 12.5 14.4444 12.5C14.0609 12.5 13.75 12.1891 13.75 11.8055V5.55553C13.75 5.172 14.0609 4.86108 14.4444 4.86108Z" fill="#121212" />
    <path fill-rule="evenodd" clip-rule="evenodd" d="M8.61107 4.86108C8.9946 4.86108 9.30551 5.172 9.30551 5.55553V11.8055C9.30551 12.1891 8.9946 12.5 8.61107 12.5C8.22754 12.5 7.91663 12.1891 7.91663 11.8055V5.55553C7.91663 5.172 8.22754 4.86108 8.61107 4.86108Z" fill="#121212" />
</svg>