<svg width="18" height="18" viewBox="0 0 18 18" fill="none" xmlns="http://www.w3.org/2000/svg">
    <path d="M4.71613 6.59998L5.31136 14.2363C5.33964 14.6776 5.73994 15 6.26374 15H11.7399C12.2658 15 12.6587 14.6776 12.6923 14.2363L13.2876 6.59998" fill="#BDBFC7" />
    <path d="M4.71613 6.59998L5.31136 14.2363C5.33964 14.6776 5.73993 15 6.26374 15H11.7399C12.2658 15 12.6587 14.6776 12.6923 14.2363L13.2876 6.59998H4.71613Z" stroke="#BDBFC7" stroke-linecap="round" stroke-linejoin="round" />
    <path d="M4 4.80005H14H4Z" fill="#BDBFC7" />
    <path d="M4 4.80005H14" stroke="#BDBFC7" stroke-miterlimit="10" stroke-linecap="round" />
    <path d="M6.8559 4.8V4.8C6.8559 3.80589 7.66178 3 8.6559 3H9.34161C10.3357 3 11.1416 3.80589 11.1416 4.8V4.8" stroke="#BDBFC7" stroke-linecap="round" />
</svg>