<svg width="19" height="19" viewBox="0 0 19 19" fill="none" xmlns="http://www.w3.org/2000/svg">
    <path fill-rule="evenodd" clip-rule="evenodd" d="M7.82026 10.5555C9.27768 10.5555 10.4591 9.37403 10.4591 7.91661C10.4591 6.45919 9.27768 5.27772 7.82026 5.27772C6.36284 5.27772 5.18137 6.45919 5.18137 7.91661C5.18137 9.37403 6.36284 10.5555 7.82026 10.5555ZM7.82026 11.6111C9.86064 11.6111 11.5147 9.957 11.5147 7.91661C11.5147 5.87623 9.86064 4.22217 7.82026 4.22217C5.77987 4.22217 4.12581 5.87623 4.12581 7.91661C4.12581 9.957 5.77987 11.6111 7.82026 11.6111Z" fill="#121212" />
    <path fill-rule="evenodd" clip-rule="evenodd" d="M13.2114 15.8333C12.94 15.8333 12.7151 15.6284 12.6571 15.3632C12.1904 13.229 10.2575 11.6111 7.91664 11.6111C5.57579 11.6111 3.64287 13.229 3.17617 15.3632C3.11818 15.6284 2.89329 15.8333 2.62185 15.8333C2.30796 15.8333 2.05977 15.5627 2.1202 15.2547C2.64549 12.5775 5.04095 10.5555 7.91664 10.5555C10.7923 10.5555 13.1878 12.5775 13.7131 15.2547C13.7735 15.5627 13.5253 15.8333 13.2114 15.8333Z" fill="#121212" />
    <path d="M16.8447 15.3478C16.5142 14.1395 15.5241 13.2107 14.2939 12.9886C13.9952 12.9346 13.7485 12.693 13.7485 12.3895Lnan nanCnan nan -nan -nan -nan -nanL-nan -nanC-nan -nan nan nan nan nanL13.7485 12.3895C13.7485 12.0844 14 11.8443 14.295 11.7662C15.2254 11.5199 15.9122 10.6593 15.9122 9.63551C15.9122 8.41966 14.9435 7.43402 13.7485 7.43402C13.6561 7.43402 13.5651 7.43991 13.4758 7.45135C13.098 7.49969 12.6666 7.24826 12.6666 6.86738Lnan nanCnan nan -nan -nan -nan -nanL-nan -nanC-nan -nan nan nan nan nanL12.6666 6.86738C12.6666 6.65968 12.7962 6.4706 12.9981 6.42198C13.239 6.36397 13.4902 6.33328 13.7485 6.33328C15.541 6.33328 16.9941 7.81174 16.9941 9.63551C16.9941 10.7312 16.4696 11.7023 15.6621 12.303C16.7915 12.8806 17.6375 13.9474 17.9318 15.2299C18.0052 15.5498 17.749 15.8333 17.4261 15.8333C17.1483 15.8333 16.9192 15.6201 16.8447 15.3478Z" fill="#121212" />
</svg>