<svg xmlns="http://www.w3.org/2000/svg" width="19" height="19" viewBox="0 0 19 19" fill="none">
    <path fill-rule="evenodd" clip-rule="evenodd" d="M7.8205 10.5556C9.27792 10.5556 10.4594 9.37409 10.4594 7.91667C10.4594 6.45926 9.27792 5.27778 7.8205 5.27778C6.36308 5.27778 5.18161 6.45926 5.18161 7.91667C5.18161 9.37409 6.36308 10.5556 7.8205 10.5556ZM7.8205 11.6111C9.86089 11.6111 11.5149 9.95706 11.5149 7.91667C11.5149 5.87629 9.86089 4.22223 7.8205 4.22223C5.78012 4.22223 4.12606 5.87629 4.12606 7.91667C4.12606 9.95706 5.78012 11.6111 7.8205 11.6111Z" fill="#121212"/>
    <path fill-rule="evenodd" clip-rule="evenodd" d="M13.2117 15.8333C12.9402 15.8333 12.7153 15.6284 12.6574 15.3633C12.1907 13.2291 10.2577 11.6111 7.91688 11.6111C5.57603 11.6111 3.64311 13.2291 3.17641 15.3633C3.11842 15.6284 2.89353 15.8333 2.62209 15.8333C2.30821 15.8333 2.06001 15.5627 2.12045 15.2547C2.64573 12.5776 5.04119 10.5556 7.91688 10.5556C10.7926 10.5556 13.188 12.5776 13.7133 15.2547C13.7738 15.5627 13.5256 15.8333 13.2117 15.8333Z" fill="#121212"/>
    <path d="M16.8449 15.3478C16.5145 14.1395 15.5243 13.2108 14.2941 12.9886C13.9954 12.9347 13.7488 12.6931 13.7488 12.3895Lnan nanL13.7488 12.3895C13.7488 12.0844 14.0002 11.8443 14.2952 11.7662C15.2256 11.5199 15.9125 10.6594 15.9125 9.63557C15.9125 8.41972 14.9438 7.43408 13.7488 7.43408C13.6564 7.43408 13.5653 7.43997 13.476 7.45141C13.0982 7.49976 12.6669 7.24832 12.6669 6.86744Lnan nanL12.6669 6.86744C12.6669 6.65974 12.7965 6.47066 12.9984 6.42204C13.2392 6.36404 13.4905 6.33334 13.7488 6.33334C15.5413 6.33334 16.9944 7.8118 16.9944 9.63557C16.9944 10.7313 16.4699 11.7024 15.6624 12.3031C16.7917 12.8807 17.6378 13.9474 17.932 15.23C18.0054 15.5498 17.7492 15.8333 17.4264 15.8333C17.1485 15.8333 16.9194 15.6202 16.8449 15.3478Z" fill="#121212"/>
</svg>