<svg xmlns="http://www.w3.org/2000/svg" width="177" height="23" viewBox="0 0 177 23" fill="none">
    <path d="M0 0.47168H10.6717C12.8015 0.47168 14.4932 1.01823 15.7469 2.11133C17.0006 3.18945 17.6275 4.55957 17.6275 6.22168C17.6275 7.16504 17.416 8.02604 16.9931 8.80469C16.5853 9.56836 16.1623 10.0999 15.7243 10.3994L15.0899 10.8262C15.1805 10.8561 15.3089 10.9085 15.475 10.9834C15.6412 11.0583 15.9433 11.2529 16.3813 11.5674C16.8194 11.8669 17.197 12.2038 17.5142 12.5781C17.8465 12.9375 18.1411 13.4316 18.3979 14.0605C18.6697 14.6895 18.8057 15.3708 18.8057 16.1045C18.8057 18.0062 18.1184 19.556 16.7439 20.7539C15.3844 21.9518 13.5189 22.5508 11.1475 22.5508H0V0.47168ZM11.1475 12.668H4.64478V18.6426H11.1475C12.0689 18.6426 12.8015 18.373 13.3452 17.834C13.889 17.2949 14.1609 16.5687 14.1609 15.6553C14.1609 14.8317 13.8815 14.1279 13.3226 13.5439C12.7637 12.96 12.0387 12.668 11.1475 12.668ZM12.371 8.37793C12.7939 7.95866 13.0054 7.39713 13.0054 6.69336C13.0054 5.97461 12.7939 5.41309 12.371 5.00879C11.948 4.58952 11.3816 4.37988 10.6717 4.37988H4.64478V8.98437H10.6717C11.3816 8.98437 11.948 8.78223 12.371 8.37793Z" fill="#121212"/>
    <path d="M28.5257 13.3418V22.5508H23.881V0.47168H28.5257V9.20898H39.424V0.47168H44.0687V22.5508H39.424V13.3418H28.5257Z" fill="#121212"/>
    <path d="M71.2124 13.1172H53.8115C54.0531 14.6745 54.8235 16.0221 56.1225 17.1602C57.4366 18.2982 58.9925 18.8672 60.7899 18.8672C62.089 18.8672 63.2974 18.5752 64.4151 17.9912C65.548 17.4072 66.3486 16.8382 66.8168 16.2842L67.5192 15.4307L70.5326 18.418C70.442 18.5378 70.2985 18.71 70.1022 18.9346C69.9209 19.1442 69.5206 19.5111 68.9013 20.0352C68.282 20.5443 67.6249 21.001 66.9301 21.4053C66.2353 21.7946 65.329 22.1615 64.2112 22.5059C63.1086 22.8353 61.9681 23 60.7899 23C57.633 23 54.9066 21.8545 52.6106 19.5635C50.3298 17.2575 49.1893 14.4948 49.1893 11.2754C49.1893 8.17578 50.2995 5.52539 52.52 3.32422C54.7555 1.10807 57.4291 0 60.5407 0C63.6674 0 66.2655 1.0332 68.3349 3.09961C70.4194 5.15104 71.4616 7.72656 71.4616 10.8262L71.2124 13.1172ZM60.5407 3.93066C58.8641 3.93066 57.4517 4.4248 56.3038 5.41309C55.1709 6.38639 54.4081 7.65169 54.0154 9.20898H66.9075C66.6356 7.65169 65.9332 6.38639 64.8003 5.41309C63.6674 4.4248 62.2476 3.93066 60.5407 3.93066Z" fill="#121212"/>
    <path d="M76.5369 22.5508V0.47168H81.1816V18.418H89.293V0.47168H93.9378V18.418H102.072V0.47168H106.694V22.5508H76.5369Z" fill="#121212"/>
    <path d="M110.886 4.60449V0.47168H130.824V4.60449H123.166V22.5508H118.544V4.60449H110.886Z" fill="#121212"/>
    <path d="M152.87 22.5508H148.225V20.2598C148.165 20.3197 148.059 20.417 147.908 20.5518C147.772 20.6865 147.485 20.9111 147.047 21.2256C146.624 21.5251 146.163 21.8021 145.665 22.0566C145.166 22.2962 144.539 22.5133 143.784 22.708C143.029 22.9027 142.266 23 141.496 23C139.23 23 137.349 22.3486 135.854 21.0459C134.359 19.7432 133.611 18.2533 133.611 16.5762C133.611 14.7643 134.185 13.2445 135.333 12.0166C136.496 10.7887 138.082 10.0101 140.091 9.68066L148.225 8.28809C148.225 7.12012 147.787 6.13932 146.911 5.3457C146.05 4.55208 144.94 4.15527 143.58 4.15527C142.402 4.15527 141.33 4.40234 140.363 4.89648C139.411 5.37565 138.754 5.8623 138.392 6.35645L137.78 7.14258L134.767 4.15527C134.857 4.03548 134.978 3.88574 135.129 3.70605C135.295 3.51139 135.65 3.18197 136.194 2.71777C136.753 2.23861 137.342 1.81185 137.961 1.4375C138.581 1.06315 139.396 0.733724 140.408 0.449219C141.435 0.14974 142.493 0 143.58 0C146.299 0 148.527 0.801107 150.264 2.40332C152.001 3.99056 152.87 5.95215 152.87 8.28809V22.5508ZM142.198 18.8672C144.086 18.8672 145.559 18.3132 146.616 17.2051C147.689 16.082 148.225 14.4873 148.225 12.4209V11.9717L141.02 13.1172C140.189 13.2669 139.517 13.6038 139.003 14.1279C138.49 14.652 138.233 15.3109 138.233 16.1045C138.233 16.8382 138.588 17.4821 139.298 18.0361C140.023 18.5902 140.99 18.8672 142.198 18.8672Z" fill="#121212"/>
    <path d="M157.061 4.60449V0.47168H177V4.60449H169.342V22.5508H164.72V4.60449H157.061Z" fill="#121212"/>
</svg>