<svg width="25" height="25" viewBox="0 0 25 25" fill="none" xmlns="http://www.w3.org/2000/svg">
    <path fill-rule="evenodd" clip-rule="evenodd" d="M13.1947 2.08336C13.1947 1.69983 12.8837 1.38892 12.5002 1.38892C12.1167 1.38892 11.8058 1.69983 11.8058 2.08336V3.75854L9.01413 7.70211L4.50985 9.10456L2.30315 8.369C1.9393 8.24771 1.54602 8.44435 1.42474 8.8082C1.30346 9.17205 1.5001 9.56533 1.86395 9.68661L3.9026 10.3662L6.85973 14.3327L6.79586 19.5196L5.67925 21.1325C5.46094 21.4479 5.53959 21.8805 5.85493 22.0988C6.17027 22.3171 6.60287 22.2384 6.82118 21.9231L8.24064 19.8728L12.5 18.4306L16.7599 19.8729L18.1792 21.9231C18.3976 22.2384 18.8302 22.3171 19.1455 22.0988C19.4608 21.8805 19.5395 21.4479 19.3212 21.1325L18.2042 19.5191L18.1403 14.3327L21.0973 10.3663L23.1365 9.68661C23.5003 9.56533 23.697 9.17205 23.5757 8.8082C23.4544 8.44435 23.0611 8.24771 22.6973 8.369L20.4904 9.10462L15.9859 7.70211L13.1947 3.75907V2.08336ZM11.8058 6.16238V8.4012C11.8058 8.76091 12.1403 9.09726 12.5 9.09726C12.8599 9.09726 13.1947 8.76073 13.1947 8.40082V6.16291L14.8523 8.50458C15.0285 8.75352 15.2818 8.93753 15.573 9.0282L18.2341 9.85674L16.1719 10.5441C15.8294 10.6583 15.6778 11.0521 15.7927 11.3943C15.9076 11.7366 16.2685 11.9759 16.6111 11.8617L18.7921 11.1348L17.0268 13.5025C16.8445 13.7471 16.7478 14.0448 16.7515 14.3498L16.79 17.4764L15.4057 15.4768C15.2001 15.1798 14.7755 15.1477 14.4788 15.3538C14.1822 15.5598 14.0586 15.971 14.2641 16.2679L15.4339 17.9576L12.9454 17.1151C12.6566 17.0172 12.3435 17.0172 12.0546 17.1151L9.56662 17.9575L10.7363 16.2679C10.9419 15.971 10.8183 15.5598 10.5217 15.3538C10.225 15.1477 9.80034 15.1798 9.59472 15.4768L8.21001 17.477L8.24852 14.3498C8.25227 14.0448 8.15553 13.7471 7.97323 13.5025L6.20787 11.1346L8.38935 11.8617C8.7319 11.9759 9.09285 11.7366 9.20776 11.3943C9.32265 11.0521 9.17103 10.6583 8.82855 10.5441L6.7662 9.85668L9.42703 9.0282C9.71824 8.93753 9.97151 8.75352 10.1477 8.50458L11.8058 6.16238Z" fill="#121212" />
</svg>