<svg width="25" height="25" viewBox="0 0 25 25" fill="none" xmlns="http://www.w3.org/2000/svg">
    <path fill-rule="evenodd" clip-rule="evenodd" d="M18.0556 4.16672H6.9445C5.41037 4.16672 4.16672 5.41037 4.16672 6.9445V11.8056H12.5001H20.8334V6.9445C20.8334 5.41037 19.5897 4.16672 18.0556 4.16672ZM2.77783 6.9445V12.5001V18.0556C2.77783 20.3568 4.64331 22.2223 6.9445 22.2223H12.5001H18.0556C20.3568 22.2223 22.2223 20.3568 22.2223 18.0556V12.5001V6.9445C22.2223 4.64331 20.3568 2.77783 18.0556 2.77783H6.9445C4.64331 2.77783 2.77783 4.64331 2.77783 6.9445ZM6.9445 20.8334H11.8056V13.1945H4.16672V18.0556C4.16672 19.5897 5.41037 20.8334 6.9445 20.8334Z" fill="#121212" />
</svg>