<svg xmlns="http://www.w3.org/2000/svg" width="18" height="18" viewBox="0 0 18 18" fill="none">
    <g clip-path="url(#clip0_3345_63943)">
        <path d="M2.16329 9.37373C2.55802 8.77028 3.44229 8.77028 3.83702 9.37373L4.38455 10.2108L5.26062 10.3975C6.02347 10.56 6.31484 11.4945 5.77957 12.0618L5.24015 12.6335L5.31998 13.4798C5.38988 14.2207 4.65471 14.7757 3.96124 14.5054L3.00015 14.1308L2.03906 14.5054C1.3456 14.7757 0.610424 14.2207 0.680323 13.4798L0.760152 12.6335L0.220735 12.0618C-0.314533 11.4945 -0.0231621 10.56 0.739682 10.3975L1.61576 10.2108L2.16329 9.37373Z" fill="#FF64A3"/>
        <path d="M7.90863 6.76674C7.66594 6.52405 7.31574 6.42278 6.98097 6.49848L6.15132 6.68608C5.40879 6.85399 5.11871 7.75697 5.62454 8.3259L7.57882 10.524L7.31864 13.4511C7.25216 14.199 8.00304 14.7507 8.69694 14.4637L11.4988 13.3047L14.3007 14.4637C14.3556 14.4864 14.4108 14.5038 14.466 14.5164C15.006 14.639 15.0713 13.9294 14.6798 13.5379L7.90863 6.76674Z" fill="#FF64A3"/>
        <path d="M15.0326 9.3652C15.4394 9.77202 16.1047 9.75251 16.487 9.32254L17.3731 8.3259C17.8789 7.75697 17.5889 6.85399 16.8463 6.68608L13.9215 6.0247L12.3501 3.47529C11.9595 2.84157 11.0382 2.84157 10.6475 3.47529L10.4884 3.73342C10.2453 4.12784 10.305 4.63762 10.6326 4.96524L15.0326 9.3652Z" fill="#FF64A3"/>
        <path fill-rule="evenodd" clip-rule="evenodd" d="M6.07613 2.66988C6.31044 2.43556 6.69034 2.43556 6.92465 2.66988L17.9247 13.6699C18.159 13.9042 18.159 14.2841 17.9247 14.5184C17.6903 14.7527 17.3104 14.7527 17.0761 14.5184L6.07613 3.5184C5.84181 3.28409 5.84181 2.90419 6.07613 2.66988Z" fill="#FF64A3"/>
    </g>
    <defs>
        <clipPath id="clip0_3345_63943">
            <rect width="18" height="18" fill="white"/>
        </clipPath>
    </defs>
</svg>