<svg xmlns="http://www.w3.org/2000/svg" width="20" height="20" viewBox="0 0 20 20" fill="none">
    <g clip-path="url(#clip0_3345_63855)">
        <path d="M10.0033 0C4.47917 0 0 4.4775 0 10.0017C0 15.5267 4.47917 20 10.0033 20C15.525 20 20 15.5267 20 10.0017C20 4.4775 15.5258 0 10.0033 0ZM9.27417 4.7825H10.695L10 6.52083H9.02667C7.98083 6.52083 7.30917 6.52417 6.94667 6.64417C6.59417 6.75417 6.33417 6.88583 6.19167 7.09417C6.06083 7.2625 6.01667 7.49167 6.01667 7.69083C6.01667 7.89917 6.03917 8.09667 6.24583 8.3625C6.5 8.61667 6.92 8.945 7.74333 9.45167C9.385 10.4758 9.87 11.2883 9.87 12.3575C9.87 14.0992 8.22833 15.7608 5.47667 15.7608C4.65 15.7608 3.49583 15.6392 3.00917 15.4842L2.75333 15.4092C2.85333 15.0783 3.18 14.165 3.32417 13.7792L3.5825 13.8442C4.1225 13.9775 4.96917 14.0542 5.53083 14.0542C7.14083 14.0542 7.76583 13.3275 7.76583 12.6892C7.76583 12.1058 7.4475 11.7858 5.85 10.8175C4.35333 9.8925 3.83583 9.0875 3.83583 7.97667C3.83583 6.64333 4.69417 5.62833 5.9375 5.14417C6.6775 4.86917 7.69917 4.7825 9.27417 4.7825ZM11.74 4.7825H16.6325C16.8625 4.7825 16.9067 4.945 16.8183 5.12167C16.4983 5.915 13.4792 13.4783 13.4792 13.4783H11.4617C11.4617 13.4783 13.8458 7.4025 14.2417 6.4975C13.9667 6.4975 13.7575 6.52083 12.6667 6.52083H11.0442L11.74 4.7825Z" fill="#BED600"/>
    </g>
    <defs>
        <clipPath id="clip0_3345_63855">
            <rect width="20" height="20" fill="white"/>
        </clipPath>
    </defs>
</svg>