<svg xmlns="http://www.w3.org/2000/svg" width="20" height="20" viewBox="0 0 20 20" fill="none">
    <g clip-path="url(#clip0_3345_63851)">
        <path fill-rule="evenodd" clip-rule="evenodd" d="M18.8889 10C18.8889 14.9092 14.9092 18.8889 10 18.8889C5.0908 18.8889 1.11111 14.9092 1.11111 10C1.11111 5.0908 5.0908 1.11111 10 1.11111C14.9092 1.11111 18.8889 5.0908 18.8889 10ZM20 10C20 15.5228 15.5228 20 10 20C4.47715 20 0 15.5228 0 10C0 4.47715 4.47715 0 10 0C15.5228 0 20 4.47715 20 10ZM11.5862 4.80893C11.0706 4.29334 10.2347 4.29334 9.71911 4.80893C9.20352 5.32452 9.20352 6.16046 9.71911 6.67605L9.73201 6.68895L8.43524 7.98456C8.28384 7.9651 8.08478 7.94803 7.85234 7.94818C7.33098 7.94854 6.62201 8.03575 5.90635 8.3958C5.43467 8.6331 5.19975 9.07515 5.17768 9.52324C5.1563 9.95726 5.33017 10.3978 5.65283 10.7205L6.8776 11.9452L5.55828 13.2643C5.34129 13.4812 5.34125 13.833 5.55819 14.0499C5.77512 14.2669 6.12688 14.267 6.34386 14.05L7.66327 12.7309L8.88813 13.9558C9.21079 14.2784 9.65135 14.4523 10.0854 14.4309C10.5335 14.4089 10.9755 14.1739 11.2128 13.7023C11.5729 12.9866 11.6601 12.2776 11.6604 11.7563C11.6606 11.524 11.6435 11.325 11.6241 11.1737L12.921 9.87795L12.9635 9.92039C13.479 10.436 14.315 10.436 14.8306 9.92039C15.3462 9.4048 15.3462 8.56886 14.8306 8.05327L11.5862 4.80893Z" fill="#BDBFC7"/>
    </g>
    <defs>
        <clipPath id="clip0_3345_63851">
            <rect width="20" height="20" fill="white"/>
        </clipPath>
    </defs>
</svg>