<svg xmlns="http://www.w3.org/2000/svg" width="20" height="20" viewBox="0 0 20 20" fill="none">
    <g clip-path="url(#clip0_3345_63853)">
        <path fill-rule="evenodd" clip-rule="evenodd" d="M18.8889 10C18.8889 14.9092 14.9092 18.8889 10 18.8889C5.0908 18.8889 1.11111 14.9092 1.11111 10C1.11111 5.0908 5.0908 1.11111 10 1.11111C14.9092 1.11111 18.8889 5.0908 18.8889 10ZM20 10C20 15.5228 15.5228 20 10 20C4.47715 20 0 15.5228 0 10C0 4.47715 4.47715 0 10 0C15.5228 0 20 4.47715 20 10ZM9.99995 12.7273C11.5062 12.7273 12.7272 11.5062 12.7272 9.99999C12.7272 8.49375 11.5062 7.27271 9.99995 7.27271C8.49372 7.27271 7.27268 8.49375 7.27268 9.99999C7.27268 11.5062 8.49372 12.7273 9.99995 12.7273ZM7.27276 5.10101C6.07336 5.10101 5.10105 6.07332 5.10105 7.27273C5.10105 7.57956 4.85232 7.82829 4.54549 7.82829C4.23867 7.82829 3.98994 7.57956 3.98994 7.27273C3.98994 5.45967 5.45971 3.9899 7.27276 3.9899C7.57959 3.9899 7.82832 4.23863 7.82832 4.54546C7.82832 4.85228 7.57959 5.10101 7.27276 5.10101ZM14.899 7.27273C14.899 6.07332 13.9266 5.10101 12.7272 5.10101C12.4204 5.10101 12.1717 4.85228 12.1717 4.54546C12.1717 4.23863 12.4204 3.9899 12.7272 3.9899C14.5403 3.9899 16.0101 5.45967 16.0101 7.27273C16.0101 7.57956 15.7613 7.82829 15.4545 7.82829C15.1477 7.82829 14.899 7.57956 14.899 7.27273ZM7.27276 14.899C6.07336 14.899 5.10105 13.9267 5.10105 12.7273C5.10105 12.4204 4.85232 12.1717 4.54549 12.1717C4.23867 12.1717 3.98994 12.4204 3.98994 12.7273C3.98994 14.5403 5.45971 16.0101 7.27276 16.0101C7.57959 16.0101 7.82832 15.7614 7.82832 15.4545C7.82832 15.1477 7.57959 14.899 7.27276 14.899ZM14.899 12.7273C14.899 13.9267 13.9266 14.899 12.7272 14.899C12.4204 14.899 12.1717 15.1477 12.1717 15.4545C12.1717 15.7614 12.4204 16.0101 12.7272 16.0101C14.5403 16.0101 16.0101 14.5403 16.0101 12.7273C16.0101 12.4204 15.7613 12.1717 15.4545 12.1717C15.1477 12.1717 14.899 12.4204 14.899 12.7273Z" fill="#BDBFC7"/>
    </g>
    <defs>
        <clipPath id="clip0_3345_63853">
            <rect width="20" height="20" fill="white"/>
        </clipPath>
    </defs>
</svg>